<?xml version="1.0" encoding="UTF-8"?>
<!DOCTYPE svg PUBLIC "-//W3C//DTD SVG 1.0//EN" "http://www.w3.org/TR/2001/REC-SVG-20010904/DTD/svg10.dtd">
<!-- Creator: CorelDRAW 2021 (64-Bit) -->
<svg xmlns="http://www.w3.org/2000/svg" xml:space="preserve" width="108.284mm" height="108.788mm" version="1.0" shape-rendering="geometricPrecision" text-rendering="geometricPrecision" image-rendering="optimizeQuality" fill-rule="evenodd" clip-rule="evenodd"
viewBox="0 0 10828.38 10878.82"
 xmlns:xlink="http://www.w3.org/1999/xlink"
 xmlns:xodm="http://www.corel.com/coreldraw/odm/2003">
 <defs>
    <clipPath id="id0" clip-rule="nonzero">
     <path d="M7362.59 104.75c-23.36,0.3 -47.31,1.45 -71.11,3.31 -947.83,163.61 -1468.99,1165.87 -1544.5,2049.7 -110.35,801.98 243.07,1832.78 1123.65,2012.48 127.73,24.32 260.44,13.21 385.3,-20.67 1060.37,-355.56 1534.89,-1611.39 1381.62,-2651.62 -44.56,-671.84 -551.01,-1402.43 -1274.96,-1393.2zm-4018.36 43c-589.36,14.47 -1048.46,612.2 -1141.84,1174.09 -196.88,1113.21 309.51,2496.39 1469.26,2848.4 108.63,23.63 220.99,26.06 330.73,9.1 783.86,-130.64 1115.93,-1009.49 1083.14,-1718.97 -23.6,-935.89 -509.75,-2018.06 -1481.67,-2281.2 -88.84,-23.56 -175.43,-33.49 -259.62,-31.42zm6669.78 3328.39c-1019.55,61 -1801.85,911.66 -1901.49,1861.58 -134.93,685.1 230.31,1601.43 1012.03,1656.12 1089.99,-13.43 1542,-1136.49 1572.89,-2138.67 68.95,-662.81 53.41,-1342.43 -683.43,-1379.03zm-9007.21 59.1c-433.76,-3.73 -652.08,464.37 -793.83,905.29 -378.16,1179.49 172.96,2465.03 1422.22,2712.89 521.37,89.22 979.49,-311.17 1108.76,-792.92 273.97,-1030.42 -288.74,-2226.88 -1241.06,-2694.62 -155.15,-87.07 -326.36,-129.18 -496.09,-130.64zm4570.68 2115.02c-850.36,1.81 -1714.05,433.34 -2264.67,1075.69 -594.72,748.7 -1081.89,1619.95 -1272.48,2564.81 -231.55,680.15 293.25,1462.89 1020.3,1467.61 874.68,24.29 1626.41,-576.34 2496.18,-620.95 737.92,-112.49 1398.67,271.34 2062.09,522.56 564.87,241.59 1345.42,149.01 1633.8,-458.89 226.85,-619.62 -107.04,-1280.32 -383.64,-1830.59 -564.15,-893.15 -1168.54,-1831.86 -2093.52,-2389.52 -370.76,-229.8 -782.77,-331.61 -1198.06,-330.72z"/>
    </clipPath>
 </defs>
 <g id="Warstwa_x0020_1">
  <metadata id="CorelCorpID_0Corel-Layer"/>
  <g>
   <g clip-path="url(#id0)">
    <polygon id="path1575" fill="#A50278" fill-rule="nonzero" points="-1154.69,9957.96 -1134.74,9870.48 9212.74,12230.79 9192.79,12318.27 "/>
    <polygon id="_1" fill="#A40278" fill-rule="nonzero" points="-1148.95,9932.77 -1106.33,9745.91 9241.15,12106.22 9198.53,12293.08 "/>
    <polygon id="_2" fill="#A30279" fill-rule="nonzero" points="-1120.53,9808.2 -1077.91,9621.35 9269.57,11981.65 9226.95,12168.51 "/>
    <polygon id="_3" fill="#A30279" fill-rule="nonzero" points="-1092.12,9683.63 -1049.5,9496.78 9297.98,11857.08 9255.36,12043.94 "/>
    <polygon id="_4" fill="#A20279" fill-rule="nonzero" points="-1063.7,9559.06 -1021.08,9372.21 9326.4,11732.51 9283.78,11919.37 "/>
    <polygon id="_5" fill="#A2027A" fill-rule="nonzero" points="-1035.29,9434.49 -992.67,9247.64 9354.81,11607.94 9312.19,11794.8 "/>
    <polygon id="_6" fill="#A1027A" fill-rule="nonzero" points="-1006.87,9309.92 -964.25,9123.07 9383.23,11483.38 9340.61,11670.23 "/>
    <polygon id="_7" fill="#A0027B" fill-rule="nonzero" points="-978.46,9185.35 -935.84,8998.5 9411.64,11358.81 9369.02,11545.66 "/>
    <polygon id="_8" fill="#A0027B" fill-rule="nonzero" points="-950.04,9060.78 -907.42,8873.93 9440.06,11234.24 9397.44,11421.09 "/>
    <polygon id="_9" fill="#9F027C" fill-rule="nonzero" points="-921.63,8936.22 -879.01,8749.36 9468.47,11109.67 9425.85,11296.52 "/>
    <polygon id="_10" fill="#9E027C" fill-rule="nonzero" points="-893.21,8811.65 -850.59,8624.79 9496.89,10985.1 9454.27,11171.95 "/>
    <polygon id="_11" fill="#9E027C" fill-rule="nonzero" points="-864.8,8687.08 -822.18,8500.22 9525.3,10860.53 9482.68,11047.38 "/>
    <polygon id="_12" fill="#9D027D" fill-rule="nonzero" points="-836.38,8562.51 -793.76,8375.65 9553.72,10735.96 9511.09,10922.81 "/>
    <polygon id="_13" fill="#9D027D" fill-rule="nonzero" points="-807.97,8437.94 -765.35,8251.08 9582.13,10611.39 9539.51,10798.25 "/>
    <polygon id="_14" fill="#9C027E" fill-rule="nonzero" points="-779.56,8313.37 -736.93,8126.52 9610.55,10486.82 9567.92,10673.68 "/>
    <polygon id="_15" fill="#9B027E" fill-rule="nonzero" points="-751.14,8188.8 -708.52,8001.95 9638.96,10362.25 9596.34,10549.11 "/>
    <polygon id="_16" fill="#9B027E" fill-rule="nonzero" points="-722.73,8064.23 -680.1,7877.38 9667.38,10237.68 9624.75,10424.54 "/>
    <polygon id="_17" fill="#9A017F" fill-rule="nonzero" points="-694.31,7939.66 -651.69,7752.81 9695.79,10113.12 9653.17,10299.97 "/>
    <polygon id="_18" fill="#99017F" fill-rule="nonzero" points="-665.9,7815.09 -623.27,7628.24 9724.21,9988.55 9681.58,10175.4 "/>
    <polygon id="_19" fill="#990180" fill-rule="nonzero" points="-637.48,7690.52 -594.86,7503.67 9752.62,9863.98 9710,10050.83 "/>
    <polygon id="_20" fill="#980180" fill-rule="nonzero" points="-609.07,7565.95 -566.44,7379.1 9781.04,9739.41 9738.41,9926.26 "/>
    <polygon id="_21" fill="#980180" fill-rule="nonzero" points="-580.65,7441.39 -538.03,7254.53 9809.45,9614.84 9766.83,9801.69 "/>
    <polygon id="_22" fill="#970181" fill-rule="nonzero" points="-552.24,7316.82 -509.61,7129.96 9837.86,9490.27 9795.24,9677.12 "/>
    <polygon id="_23" fill="#960181" fill-rule="nonzero" points="-523.82,7192.25 -481.2,7005.39 9866.28,9365.7 9823.66,9552.55 "/>
    <polygon id="_24" fill="#960182" fill-rule="nonzero" points="-495.41,7067.68 -452.79,6880.82 9894.69,9241.13 9852.07,9427.98 "/>
    <polygon id="_25" fill="#950182" fill-rule="nonzero" points="-466.99,6943.11 -424.37,6756.26 9923.11,9116.56 9880.49,9303.42 "/>
    <polygon id="_26" fill="#940182" fill-rule="nonzero" points="-438.58,6818.54 -395.96,6631.69 9951.52,8991.99 9908.9,9178.85 "/>
    <polygon id="_27" fill="#940183" fill-rule="nonzero" points="-410.16,6693.97 -367.54,6507.12 9979.94,8867.42 9937.32,9054.28 "/>
    <polygon id="_28" fill="#930183" fill-rule="nonzero" points="-381.75,6569.4 -339.13,6382.55 10008.35,8742.85 9965.73,8929.71 "/>
    <polygon id="_29" fill="#930184" fill-rule="nonzero" points="-353.33,6444.83 -310.71,6257.98 10036.77,8618.29 9994.15,8805.14 "/>
    <polygon id="_30" fill="#920184" fill-rule="nonzero" points="-324.92,6320.26 -282.3,6133.41 10065.18,8493.72 10022.56,8680.57 "/>
    <polygon id="_31" fill="#910184" fill-rule="nonzero" points="-296.5,6195.69 -253.88,6008.84 10093.6,8369.15 10050.98,8556 "/>
    <polygon id="_32" fill="#910185" fill-rule="nonzero" points="-268.09,6071.12 -225.47,5884.27 10122.01,8244.58 10079.39,8431.43 "/>
    <polygon id="_33" fill="#900185" fill-rule="nonzero" points="-239.67,5946.56 -197.05,5759.7 10150.43,8120.01 10107.81,8306.86 "/>
    <polygon id="_34" fill="#900186" fill-rule="nonzero" points="-211.26,5821.99 -168.64,5635.13 10178.84,7995.44 10136.22,8182.29 "/>
    <polygon id="_35" fill="#8F0186" fill-rule="nonzero" points="-182.84,5697.42 -140.22,5510.56 10207.26,7870.87 10164.63,8057.72 "/>
    <polygon id="_36" fill="#8E0186" fill-rule="nonzero" points="-154.43,5572.85 -111.81,5385.99 10235.67,7746.3 10193.05,7933.16 "/>
    <polygon id="_37" fill="#8E0187" fill-rule="nonzero" points="-126.02,5448.28 -83.39,5261.43 10264.09,7621.73 10221.46,7808.59 "/>
    <polygon id="_38" fill="#8D0187" fill-rule="nonzero" points="-97.6,5323.71 -54.98,5136.86 10292.5,7497.16 10249.88,7684.02 "/>
    <polygon id="_39" fill="#8D0188" fill-rule="nonzero" points="-69.19,5199.14 -26.56,5012.29 10320.92,7372.59 10278.29,7559.45 "/>
    <polygon id="_40" fill="#8C0188" fill-rule="nonzero" points="-40.77,5074.57 1.85,4887.72 10349.33,7248.02 10306.71,7434.88 "/>
    <polygon id="_41" fill="#8C0188" fill-rule="nonzero" points="-12.36,4950 30.27,4763.15 10377.75,7123.46 10335.12,7310.31 "/>
    <polygon id="_42" fill="#8B0189" fill-rule="nonzero" points="16.06,4825.43 58.68,4638.58 10406.16,6998.89 10363.54,7185.74 "/>
    <polygon id="_43" fill="#8A0189" fill-rule="nonzero" points="44.47,4700.86 87.1,4514.01 10434.58,6874.32 10391.95,7061.17 "/>
    <polygon id="_44" fill="#8A0189" fill-rule="nonzero" points="72.89,4576.3 115.51,4389.44 10462.99,6749.75 10420.37,6936.6 "/>
    <polygon id="_45" fill="#89018A" fill-rule="nonzero" points="101.3,4451.73 143.93,4264.87 10491.4,6625.18 10448.78,6812.03 "/>
    <polygon id="_46" fill="#89018A" fill-rule="nonzero" points="129.72,4327.16 172.34,4140.3 10519.82,6500.61 10477.2,6687.46 "/>
    <polygon id="_47" fill="#88018B" fill-rule="nonzero" points="158.13,4202.59 200.75,4015.73 10548.23,6376.04 10505.61,6562.89 "/>
    <polygon id="_48" fill="#88018B" fill-rule="nonzero" points="186.55,4078.02 229.17,3891.16 10576.65,6251.47 10534.03,6438.33 "/>
    <polygon id="_49" fill="#87018B" fill-rule="nonzero" points="214.96,3953.45 257.58,3766.6 10605.06,6126.9 10562.44,6313.76 "/>
    <polygon id="_50" fill="#86018C" fill-rule="nonzero" points="243.38,3828.88 286,3642.03 10633.48,6002.33 10590.86,6189.19 "/>
    <polygon id="_51" fill="#86018C" fill-rule="nonzero" points="271.79,3704.31 314.41,3517.46 10661.89,5877.76 10619.27,6064.62 "/>
    <polygon id="_52" fill="#85018C" fill-rule="nonzero" points="300.21,3579.74 342.83,3392.89 10690.31,5753.19 10647.69,5940.05 "/>
    <polygon id="_53" fill="#85018D" fill-rule="nonzero" points="328.62,3455.17 371.24,3268.32 10718.72,5628.63 10676.1,5815.48 "/>
    <polygon id="_54" fill="#84018D" fill-rule="nonzero" points="357.04,3330.6 399.66,3143.75 10747.14,5504.06 10704.52,5690.91 "/>
    <polygon id="_55" fill="#84018D" fill-rule="nonzero" points="385.45,3206.03 428.07,3019.18 10775.55,5379.49 10732.93,5566.34 "/>
    <polygon id="_56" fill="#83018E" fill-rule="nonzero" points="413.87,3081.47 456.49,2894.61 10803.97,5254.92 10761.35,5441.77 "/>
    <polygon id="_57" fill="#83018E" fill-rule="nonzero" points="442.28,2956.9 484.9,2770.04 10832.38,5130.35 10789.76,5317.2 "/>
    <polygon id="_58" fill="#82018E" fill-rule="nonzero" points="470.7,2832.33 513.32,2645.47 10860.8,5005.78 10818.17,5192.63 "/>
    <polygon id="_59" fill="#82018F" fill-rule="nonzero" points="499.11,2707.76 541.73,2520.9 10889.21,4881.21 10846.59,5068.06 "/>
    <polygon id="_60" fill="#81018F" fill-rule="nonzero" points="527.52,2583.19 570.15,2396.33 10917.63,4756.64 10875,4943.5 "/>
    <polygon id="_61" fill="#810190" fill-rule="nonzero" points="555.94,2458.62 598.56,2271.77 10946.04,4632.07 10903.42,4818.93 "/>
    <polygon id="_62" fill="#800190" fill-rule="nonzero" points="584.35,2334.05 626.98,2147.2 10974.46,4507.5 10931.83,4694.36 "/>
    <polygon id="_63" fill="#800190" fill-rule="nonzero" points="612.77,2209.48 655.39,2022.63 11002.87,4382.93 10960.25,4569.79 "/>
    <polygon id="_64" fill="#7F0190" fill-rule="nonzero" points="641.18,2084.91 683.81,1898.06 11031.29,4258.37 10988.66,4445.22 "/>
    <polygon id="_65" fill="#7F0191" fill-rule="nonzero" points="669.6,1960.34 712.22,1773.49 11059.7,4133.8 11017.08,4320.65 "/>
    <polygon id="_66" fill="#7E0191" fill-rule="nonzero" points="698.01,1835.77 740.64,1648.92 11088.12,4009.23 11045.49,4196.08 "/>
    <polygon id="_67" fill="#7E0191" fill-rule="nonzero" points="726.43,1711.2 769.05,1524.35 11116.53,3884.66 11073.91,4071.51 "/>
    <polygon id="_68" fill="#7D0192" fill-rule="nonzero" points="754.84,1586.64 797.47,1399.78 11144.94,3760.09 11102.32,3946.94 "/>
    <polygon id="_69" fill="#7D0192" fill-rule="nonzero" points="783.26,1462.07 825.88,1275.21 11173.36,3635.52 11130.74,3822.37 "/>
    <polygon id="_70" fill="#7C0192" fill-rule="nonzero" points="811.67,1337.5 854.29,1150.64 11201.77,3510.95 11159.15,3697.8 "/>
    <polygon id="_71" fill="#7C0193" fill-rule="nonzero" points="840.09,1212.93 882.71,1026.07 11230.19,3386.38 11187.57,3573.23 "/>
    <polygon id="_72" fill="#7B0193" fill-rule="nonzero" points="868.5,1088.36 911.12,901.51 11258.6,3261.81 11215.98,3448.67 "/>
    <polygon id="_73" fill="#7B0193" fill-rule="nonzero" points="896.92,963.79 939.54,776.94 11287.02,3137.24 11244.4,3324.1 "/>
    <polygon id="_74" fill="#7A0194" fill-rule="nonzero" points="925.33,839.22 967.95,652.37 11315.43,3012.67 11272.81,3199.53 "/>
    <polygon id="_75" fill="#7A0194" fill-rule="nonzero" points="953.75,714.65 996.37,527.8 11343.85,2888.1 11301.23,3074.96 "/>
    <polygon id="_76" fill="#790194" fill-rule="nonzero" points="982.16,590.08 1024.78,403.23 11372.26,2763.54 11329.64,2950.39 "/>
    <polygon id="_77" fill="#790195" fill-rule="nonzero" points="1010.58,465.51 1053.2,278.66 11400.68,2638.97 11358.06,2825.82 "/>
    <polygon id="_78" fill="#790195" fill-rule="nonzero" points="1038.99,340.94 1081.61,154.09 11429.09,2514.4 11386.47,2701.25 "/>
    <polygon id="_79" fill="#780195" fill-rule="nonzero" points="1067.41,216.37 1110.03,29.52 11457.51,2389.83 11414.89,2576.68 "/>
    <polygon id="_80" fill="#780195" fill-rule="nonzero" points="1095.82,91.81 1138.44,-95.05 11485.92,2265.26 11443.3,2452.11 "/>
    <polygon id="_81" fill="#770096" fill-rule="nonzero" points="1124.24,-32.76 1166.86,-219.62 11514.34,2140.69 11471.71,2327.54 "/>
    <polygon id="_82" fill="#770096" fill-rule="nonzero" points="1152.65,-157.33 1195.27,-344.19 11542.75,2016.12 11500.13,2202.97 "/>
    <polygon id="_83" fill="#760096" fill-rule="nonzero" points="1181.06,-281.9 1223.69,-468.76 11571.17,1891.55 11528.54,2078.41 "/>
    <polygon id="_84" fill="#760096" fill-rule="nonzero" points="1209.48,-406.47 1252.1,-593.32 11599.58,1766.98 11556.96,1953.84 "/>
    <polygon id="_85" fill="#760097" fill-rule="nonzero" points="1237.89,-531.04 1280.52,-717.89 11628,1642.41 11585.37,1829.27 "/>
    <polygon id="_86" fill="#750097" fill-rule="nonzero" points="1266.31,-655.61 1308.93,-842.46 11656.41,1517.84 11613.79,1704.7 "/>
    <polygon id="_87" fill="#750097" fill-rule="nonzero" points="1294.72,-780.18 1337.35,-967.03 11684.83,1393.27 11642.2,1580.13 "/>
    <polygon id="_88" fill="#740098" fill-rule="nonzero" points="1323.14,-904.75 1365.76,-1091.6 11713.24,1268.71 11670.62,1455.56 "/>
    <polygon id="_89" fill="#740098" fill-rule="nonzero" points="1351.55,-1029.32 1394.18,-1216.17 11741.66,1144.14 11699.03,1330.99 "/>
    <polygon id="_90" fill="#740098" fill-rule="nonzero" points="1379.97,-1153.89 1422.59,-1340.74 11770.07,1019.57 11727.45,1206.42 "/>
    <polygon id="_91" fill="#730098" fill-rule="nonzero" points="1408.38,-1278.45 1451.01,-1465.31 11798.48,895 11755.86,1081.85 "/>
    <polygon id="_92" fill="#730099" fill-rule="nonzero" points="1436.8,-1403.02 1479.42,-1589.88 11826.9,770.43 11784.28,957.28 "/>
    <polygon id="_93" fill="#730099" fill-rule="nonzero" points="1465.21,-1527.59 1440.76,-1420.41 11788.24,939.9 11812.69,832.71 "/>
   </g>
  </g>
 </g>
</svg>
