<?xml version="1.0" encoding="UTF-8"?>
<!DOCTYPE svg PUBLIC "-//W3C//DTD SVG 1.0//EN" "http://www.w3.org/TR/2001/REC-SVG-20010904/DTD/svg10.dtd">
<!-- Creator: CorelDRAW 2021 (64-Bit) -->
<svg xmlns="http://www.w3.org/2000/svg" xml:space="preserve" width="151.1mm" height="151.1mm" version="1.0" shape-rendering="geometricPrecision" text-rendering="geometricPrecision" image-rendering="optimizeQuality" fill-rule="evenodd" clip-rule="evenodd"
viewBox="0 0 15110.02 15110.02"
 xmlns:xlink="http://www.w3.org/1999/xlink"
 xmlns:xodm="http://www.corel.com/coreldraw/odm/2003">
 <defs>
    <clipPath id="id0">
     <path d="M10525.08 14692.89l-2957.39 7.62c-985.8,2.55 -2258.53,702.89 -2957.4,7.63l-2096.58 -2085.82c-698.86,-695.26 -2094.04,-1100.01 -2096.58,-2085.8l-7.62 -2957.39c-2.55,-985.8 -702.89,-2258.53 -7.63,-2957.4l2085.82 -2096.58c695.26,-698.86 1100.01,-2094.04 2085.8,-2096.58l2957.39 -7.62c985.8,-2.55 2258.53,-702.89 2957.4,-7.63l2096.58 2085.82c698.86,695.26 2094.04,1100.01 2096.58,2085.8l7.62 2957.39c2.55,985.8 702.89,2258.53 7.63,2957.4l-2085.82 2096.58c-695.26,698.86 -1100.01,2094.04 -2085.8,2096.58z"/>
    </clipPath>
 </defs>
 <g id="Warstwa_x0020_1">
  <metadata id="CorelCorpID_0Corel-Layer"/>
  <g>
   <g clip-path="url(#id0)">
    <path fill="#ED2E38" d="M15643.04 8861.2c13.1,-83.3 -35.85,-175.76 -109.33,-206.52 -73.49,-30.75 -143.68,11.84 -156.78,95.14 -13.1,83.31 35.85,175.77 109.33,206.53 73.49,30.75 143.68,-11.84 156.78,-95.15z"/>
    <path id="_1" fill="#ED2E38" d="M15598.69 8842.64c-8.74,55.54 -55.53,83.93 -104.52,63.43 -48.99,-20.51 -81.62,-82.15 -72.89,-137.68 8.74,-55.54 55.53,-83.93 104.52,-63.43 48.99,20.5 81.62,82.15 72.89,137.68zm133.05 55.69c21.84,-138.83 -59.74,-292.94 -182.22,-344.2 -122.47,-51.26 -239.46,19.73 -261.29,158.57 -21.84,138.83 59.75,292.94 182.22,344.2 122.47,51.26 239.46,-19.73 261.29,-158.57z"/>
    <path id="_2" fill="#ED2E38" d="M15687.39 8879.77c-17.47,111.07 -111.05,167.86 -209.03,126.85 -97.98,-41.01 -163.25,-164.29 -145.78,-275.36 17.47,-111.07 111.06,-167.86 209.03,-126.85 97.98,41 163.25,164.29 145.78,275.36zm133.06 55.69c30.57,-194.37 -83.65,-410.12 -255.11,-481.89 -171.47,-71.76 -335.25,27.63 -365.82,222 -30.57,194.37 83.65,410.12 255.12,481.88 171.46,71.77 335.24,-27.62 365.81,-221.99z"/>
    <path id="_3" fill="#ED2E38" d="M15776.1 8916.9c-26.21,166.6 -166.59,251.79 -313.56,190.28 -146.97,-61.52 -244.87,-246.44 -218.66,-413.05 26.2,-166.6 166.58,-251.79 313.55,-190.28 146.97,61.52 244.87,246.44 218.67,413.05zm133.05 55.69c39.3,-249.91 -107.55,-527.3 -328,-619.57 -220.45,-92.27 -431.03,35.52 -470.33,285.42 -39.3,249.91 107.55,527.3 328,619.57 220.45,92.27 431.03,-35.52 470.33,-285.42z"/>
    <path id="_4" fill="#ED2E38" d="M15864.8 8954.02c-34.94,222.14 -222.11,335.73 -418.07,253.71 -195.96,-82.02 -326.49,-328.59 -291.56,-550.72 34.94,-222.14 222.12,-335.73 418.07,-253.71 195.96,82.02 326.49,328.58 291.56,550.72zm133.05 55.69c48.04,-305.44 -131.44,-644.47 -400.89,-757.25 -269.44,-112.77 -526.81,43.41 -574.84,348.86 -48.04,305.44 131.44,644.47 400.89,757.24 269.44,112.78 526.81,-43.41 574.84,-348.85z"/>
    <path id="_5" fill="#ED2E38" d="M15953.5 8991.15c-43.67,277.67 -277.64,419.66 -522.59,317.14 -244.94,-102.53 -408.11,-410.74 -364.44,-688.41 43.67,-277.67 277.64,-419.66 522.59,-317.14 244.94,102.53 408.11,410.74 364.44,688.41zm133.06 55.69c56.77,-360.98 -155.35,-761.65 -473.78,-894.93 -318.43,-133.28 -622.59,51.3 -679.37,412.28 -56.77,360.97 155.35,761.65 473.78,894.93 318.43,133.28 622.6,-51.3 679.37,-412.28z"/>
    <path id="_6" fill="#ED2E38" d="M16042.21 9028.28c-52.41,333.21 -333.17,503.59 -627.11,380.56 -293.94,-123.03 -489.74,-492.88 -437.33,-826.09 52.4,-333.21 333.16,-503.59 627.1,-380.56 293.94,123.03 489.74,492.88 437.34,826.09zm133.05 55.69c65.51,-416.51 -179.25,-878.83 -546.67,-1032.61 -367.42,-153.79 -718.37,59.19 -783.88,475.7 -65.5,416.51 179.25,878.83 546.67,1032.61 367.42,153.79 718.38,-59.19 783.88,-475.7z"/>
    <path id="_7" fill="#ED2E38" d="M16130.91 9065.4c-61.14,388.75 -388.7,587.53 -731.62,444 -342.93,-143.54 -571.37,-575.03 -510.23,-963.78 61.14,-388.74 388.7,-587.52 731.63,-443.99 342.92,143.54 571.36,575.03 510.22,963.77zm133.05 55.69c74.24,-472.04 -203.14,-996 -619.55,-1170.29 -416.41,-174.29 -814.16,67.09 -888.4,539.13 -74.24,472.05 203.14,996.01 619.55,1170.3 416.41,174.29 814.16,-67.09 888.4,-539.14z"/>
    <path id="_8" fill="#ED2E38" d="M16219.61 9102.53c-69.87,444.28 -444.22,671.46 -836.14,507.42 -391.92,-164.04 -652.98,-657.18 -583.11,-1101.45 69.87,-444.28 444.22,-671.46 836.14,-507.42 391.92,164.04 652.98,657.17 583.11,1101.45zm133.06 55.69c82.97,-527.58 -227.05,-1113.18 -692.45,-1307.97 -465.4,-194.8 -909.94,74.98 -992.92,602.56 -82.97,527.58 227.05,1113.18 692.45,1307.97 465.4,194.8 909.94,-74.98 992.92,-602.56z"/>
    <path id="_9" fill="#ED2E38" d="M16308.32 9139.66c-78.61,499.81 -499.76,755.39 -940.66,570.84 -440.91,-184.54 -734.61,-739.32 -656,-1239.13 78.6,-499.81 499.75,-755.39 940.65,-570.85 440.91,184.55 734.61,739.33 656.01,1239.14zm133.05 55.69c91.71,-583.12 -250.94,-1230.36 -765.33,-1445.66 -514.39,-215.3 -1005.73,82.87 -1097.44,665.99 -91.71,583.11 250.95,1230.36 765.33,1445.66 514.39,215.3 1005.73,-82.88 1097.44,-665.99z"/>
    <path id="_10" fill="#EC2E38" d="M16397.02 9176.79c-87.34,555.34 -555.28,839.32 -1045.18,634.27 -489.89,-205.05 -816.23,-821.47 -728.89,-1376.82 87.34,-555.34 555.28,-839.32 1045.18,-634.27 489.89,205.05 816.23,821.47 728.89,1376.82zm133.05 55.69c100.45,-638.65 -274.84,-1347.54 -838.22,-1583.34 -563.38,-235.81 -1101.51,90.76 -1201.95,729.41 -100.44,638.65 274.84,1347.54 838.22,1583.34 563.38,235.81 1101.51,-90.76 1201.95,-729.41z"/>
    <path id="_11" fill="#EC2E39" d="M16485.72 9213.91c-96.07,610.88 -610.81,923.26 -1149.69,697.7 -538.89,-225.55 -897.86,-903.61 -801.78,-1514.49 96.07,-610.89 610.81,-923.26 1149.69,-697.71 538.89,225.56 897.86,903.62 801.78,1514.5zm133.06 55.69c109.17,-694.18 -298.75,-1464.71 -911.11,-1721.02 -612.37,-256.31 -1197.3,98.66 -1306.48,792.85 -109.17,694.18 298.75,1464.71 911.12,1721.02 612.36,256.3 1197.29,-98.66 1306.47,-792.85z"/>
    <path id="_12" fill="#EC2E39" d="M16574.43 9251.04c-104.81,666.42 -666.34,1007.19 -1254.22,761.13 -587.87,-246.06 -979.47,-985.76 -874.66,-1652.18 104.8,-666.42 666.33,-1007.19 1254.21,-761.13 587.87,246.06 979.47,985.76 874.67,1652.18zm133.05 55.69c117.91,-749.72 -322.64,-1581.89 -984,-1858.7 -661.36,-276.82 -1293.08,106.55 -1410.99,856.27 -117.91,749.72 322.64,1581.89 984,1858.7 661.36,276.81 1293.08,-106.55 1410.99,-856.27z"/>
    <path id="_13" fill="#EC2E39" d="M16663.13 9288.17c-113.54,721.95 -721.87,1091.11 -1358.73,824.55 -636.86,-266.56 -1061.1,-1067.91 -947.56,-1789.86 113.55,-721.95 721.87,-1091.12 1358.73,-824.55 636.87,266.56 1061.1,1067.91 947.56,1789.86zm133.05 55.69c126.65,-805.26 -346.54,-1699.07 -1056.89,-1996.39 -710.34,-297.31 -1388.86,114.45 -1515.5,919.7 -126.65,805.25 346.54,1699.07 1056.89,1996.38 710.34,297.32 1388.86,-114.44 1515.5,-919.69z"/>
    <path id="_14" fill="#EC2E39" d="M16751.83 9325.29c-122.27,777.49 -777.39,1175.05 -1463.25,887.99 -685.85,-287.07 -1142.72,-1150.06 -1020.44,-1927.55 122.28,-777.48 777.39,-1175.05 1463.25,-887.98 685.85,287.07 1142.72,1150.06 1020.44,1927.54zm133.06 55.69c135.37,-860.78 -370.44,-1816.24 -1129.78,-2134.06 -759.34,-317.82 -1484.65,122.34 -1620.03,983.12 -135.37,860.79 370.45,1816.25 1129.78,2134.07 759.34,317.82 1484.65,-122.34 1620.03,-983.13z"/>
    <path id="_15" fill="#EC2E39" d="M16840.54 9362.42c-131.02,833.02 -832.93,1258.98 -1567.77,951.41 -734.84,-307.57 -1224.34,-1232.2 -1093.33,-2065.22 131.01,-833.02 832.92,-1258.98 1567.76,-951.41 734.84,307.57 1224.35,1232.2 1093.34,2065.22zm133.05 55.69c144.11,-916.32 -394.34,-1933.42 -1202.67,-2271.74 -808.32,-338.33 -1580.43,130.22 -1724.54,1046.55 -144.11,916.32 394.34,1933.42 1202.67,2271.74 808.32,338.33 1580.43,-130.23 1724.54,-1046.55z"/>
    <path id="_16" fill="#EB2D39" d="M16929.24 9399.55c-139.75,888.55 -888.45,1342.91 -1672.28,1014.84 -783.84,-328.08 -1305.97,-1314.35 -1166.23,-2202.91 139.75,-888.56 888.45,-1342.91 1672.29,-1014.84 783.83,328.08 1305.96,1314.35 1166.22,2202.91zm133.05 55.69c152.85,-971.86 -418.24,-2050.6 -1275.55,-2409.43 -857.32,-358.83 -1676.22,138.12 -1829.06,1109.98 -152.85,971.86 418.24,2050.59 1275.55,2409.43 857.32,358.83 1676.22,-138.12 1829.06,-1109.98z"/>
    <path id="_17" fill="#EB2D39" d="M17017.94 9436.68c-148.48,944.09 -943.98,1426.84 -1776.8,1078.26 -832.82,-348.58 -1387.59,-1396.5 -1239.11,-2340.59 148.48,-944.09 943.98,-1426.84 1776.8,-1078.26 832.82,348.58 1387.59,1396.5 1239.11,2340.59zm133.06 55.69c161.58,-1027.4 -442.14,-2167.78 -1348.45,-2547.11 -906.3,-379.34 -1772,146.01 -1933.58,1173.4 -161.58,1027.39 442.14,2167.77 1348.45,2547.11 906.31,379.34 1772,-146.01 1933.58,-1173.4z"/>
    <path id="_18" fill="#EB2D39" d="M17106.65 9473.8c-157.22,999.63 -999.51,1510.78 -1881.32,1141.7 -881.81,-369.09 -1469.22,-1478.65 -1312,-2478.27 157.21,-999.63 999.5,-1510.78 1881.31,-1141.7 881.82,369.09 1469.22,1478.65 1312.01,2478.27zm133.05 55.69c170.31,-1082.92 -466.04,-2284.95 -1421.33,-2684.79 -955.3,-399.84 -1867.79,153.91 -2038.1,1236.84 -170.31,1082.92 466.04,2284.94 1421.34,2684.79 955.29,399.84 1867.78,-153.91 2038.09,-1236.84z"/>
    <path id="_19" fill="#EB2D3A" d="M17195.35 9510.93c-165.95,1055.16 -1055.04,1594.71 -1985.84,1205.12 -930.8,-389.59 -1550.83,-1560.79 -1384.89,-2615.95 165.95,-1055.16 1055.04,-1594.71 1985.84,-1205.12 930.8,389.59 1550.84,1560.79 1384.89,2615.95zm133.05 55.69c179.05,-1138.46 -489.94,-2402.13 -1494.22,-2822.47 -1004.28,-420.35 -1963.56,161.8 -2142.61,1300.26 -179.05,1138.46 489.94,2402.12 1494.22,2822.47 1004.29,420.35 1963.57,-161.8 2142.61,-1300.26z"/>
    <path id="_20" fill="#EB2D3A" d="M17284.05 9548.06c-174.68,1110.69 -1110.56,1678.64 -2090.35,1268.54 -979.79,-410.09 -1632.46,-1642.93 -1457.78,-2753.63 174.68,-1110.69 1110.56,-1678.64 2090.35,-1268.55 979.79,410.1 1632.46,1642.94 1457.78,2753.64zm133.06 55.69c187.78,-1194 -513.84,-2519.31 -1567.12,-2960.16 -1053.27,-440.85 -2059.34,169.69 -2247.13,1363.69 -187.78,1194 513.84,2519.3 1567.12,2960.16 1053.27,440.85 2059.34,-169.7 2247.13,-1363.69z"/>
    <path id="_21" fill="#EA2D3A" d="M17372.76 9585.18c-183.42,1166.23 -1166.1,1762.58 -2194.88,1331.98 -1028.78,-430.6 -1714.08,-1725.09 -1530.66,-2891.32 183.41,-1166.22 1166.09,-1762.57 2194.87,-1331.97 1028.78,430.6 1714.08,1725.09 1530.67,2891.31zm133.05 55.69c196.52,-1249.53 -537.74,-2636.48 -1640,-3097.83 -1102.26,-461.36 -2155.13,177.58 -2351.65,1427.11 -196.51,1249.53 537.74,2636.48 1640,3097.84 1102.27,461.36 2155.13,-177.58 2351.65,-1427.12z"/>
    <path id="_22" fill="#EA2D3A" d="M17461.46 9622.31c-192.15,1221.76 -1221.62,1846.51 -2299.39,1395.4 -1077.77,-451.1 -1795.71,-1807.23 -1603.56,-3028.99 192.15,-1221.77 1221.62,-1846.51 2299.39,-1395.4 1077.77,451.1 1795.71,1807.23 1603.56,3028.99zm133.05 55.69c205.25,-1305.06 -561.63,-2753.65 -1712.89,-3235.52 -1151.25,-481.86 -2250.91,185.48 -2456.16,1490.55 -205.25,1305.06 561.64,2753.65 1712.89,3235.51 1151.25,481.87 2250.91,-185.47 2456.16,-1490.54z"/>
    <path id="_23" fill="#EA2D3A" d="M17550.16 9659.44c-200.88,1277.3 -1277.15,1930.44 -2403.9,1458.83 -1126.76,-471.61 -1877.33,-1889.38 -1676.45,-3166.68 200.88,-1277.3 1277.15,-1930.44 2403.91,-1458.83 1126.75,471.61 1877.32,1889.38 1676.44,3166.68zm133.06 55.69c213.98,-1360.6 -585.54,-2870.83 -1785.78,-3373.2 -1200.24,-502.37 -2346.7,193.37 -2560.69,1553.97 -213.98,1360.6 585.54,2870.83 1785.78,3373.2 1200.25,502.37 2346.7,-193.37 2560.69,-1553.97z"/>
    <path id="_24" fill="#EA2D3B" d="M17638.86 9696.57c-209.61,1332.83 -1332.67,2014.37 -2508.42,1522.25 -1175.75,-492.11 -1958.95,-1971.52 -1749.33,-3304.36 209.61,-1332.83 1332.67,-2014.37 2508.42,-1522.25 1175.75,492.11 1958.95,1971.52 1749.33,3304.36zm133.06 55.69c222.72,-1416.14 -609.44,-2988.01 -1858.67,-3510.89 -1249.23,-522.87 -2442.48,201.27 -2665.2,1617.4 -222.72,1416.14 609.44,2988.01 1858.67,3510.88 1249.23,522.88 2442.48,-201.26 2665.2,-1617.39z"/>
    <path id="_25" fill="#E92D3B" d="M17727.57 9733.69c-218.35,1388.37 -1388.21,2098.31 -2612.94,1585.69 -1224.74,-512.62 -2040.58,-2053.68 -1822.23,-3442.04 218.35,-1388.37 1388.21,-2098.31 2612.94,-1585.69 1224.74,512.62 2040.58,2053.67 1822.23,3442.04zm133.05 55.69c231.46,-1471.67 -633.33,-3105.18 -1931.55,-3648.56 -1298.22,-543.38 -2538.27,209.16 -2769.72,1680.83 -231.45,1471.67 633.33,3105.18 1931.55,3648.56 1298.23,543.37 2538.27,-209.16 2769.72,-1680.83z"/>
    <path id="_26" fill="#E92D3B" d="M17816.27 9770.82c-227.08,1443.9 -1443.73,2182.23 -2717.46,1649.11 -1273.72,-533.12 -2122.2,-2135.82 -1895.11,-3579.72 227.08,-1443.9 1443.73,-2182.24 2717.46,-1649.11 1273.73,533.12 2122.2,2135.82 1895.11,3579.72zm133.06 55.69c240.18,-1527.2 -657.24,-3222.36 -2004.45,-3786.24 -1347.21,-563.88 -2634.05,217.04 -2874.24,1744.25 -240.18,1527.2 657.24,3222.36 2004.45,3786.24 1347.21,563.88 2634.05,-217.04 2874.24,-1744.25z"/>
    <path id="_27" fill="#E92D3B" d="M17904.97 9807.95c-235.81,1499.43 -1499.26,2266.16 -2821.97,1712.54 -1322.72,-553.63 -2203.82,-2217.97 -1968,-3717.41 235.82,-1499.44 1499.26,-2266.17 2821.97,-1712.54 1322.72,553.63 2203.82,2217.97 1968,3717.41zm133.06 55.69c248.92,-1582.74 -681.13,-3339.54 -2077.33,-3923.93 -1396.2,-584.38 -2729.84,224.94 -2978.76,1807.68 -248.92,1582.74 681.14,3339.54 2077.34,3923.93 1396.2,584.38 2729.83,-224.94 2978.75,-1807.68z"/>
    <path id="_28" fill="#E82C3C" d="M17993.68 9845.07c-244.55,1554.98 -1554.79,2350.1 -2926.5,1775.97 -1371.7,-574.13 -2285.44,-2300.11 -2040.89,-3855.09 244.56,-1554.97 1554.79,-2350.09 2926.5,-1775.96 1371.7,574.13 2285.44,2300.11 2040.89,3855.08zm133.05 55.69c257.66,-1638.27 -705.03,-3456.71 -2150.22,-4061.6 -1445.19,-604.89 -2825.62,232.83 -3083.27,1871.1 -257.66,1638.28 705.03,3456.72 2150.22,4061.61 1445.19,604.89 2825.62,-232.83 3083.27,-1871.11z"/>
    <path id="_29" fill="#E82C3C" d="M18082.38 9882.2c-253.29,1610.51 -1610.32,2434.03 -3031.01,1839.39 -1420.7,-594.63 -2367.07,-2382.26 -2113.78,-3992.76 253.29,-1610.51 1610.32,-2434.03 3031.01,-1839.4 1420.7,594.64 2367.07,2382.26 2113.78,3992.77zm133.06 55.69c266.38,-1693.81 -728.94,-3573.89 -2223.12,-4199.29 -1494.18,-625.39 -2921.4,240.73 -3187.79,1934.54 -266.38,1693.81 728.94,3573.89 2223.12,4199.29 1494.18,625.39 2921.4,-240.73 3187.79,-1934.54z"/>
    <path id="_30" fill="#E82C3C" d="M18171.08 9919.33c-262.02,1666.04 -1665.84,2517.96 -3135.53,1902.82 -1469.68,-615.14 -2448.68,-2464.41 -2186.66,-4130.45 262.02,-1666.04 1665.84,-2517.96 3135.53,-1902.82 1469.68,615.14 2448.69,2464.41 2186.66,4130.45zm133.06 55.69c275.12,-1749.34 -752.83,-3691.07 -2296,-4336.97 -1543.17,-645.9 -3017.19,248.62 -3292.31,1997.96 -275.12,1749.34 752.83,3691.07 2296,4336.97 1543.17,645.9 3017.19,-248.62 3292.31,-1997.96z"/>
    <path id="_31" fill="#E72C3C" d="M18259.79 9956.46c-270.76,1721.57 -1721.38,2601.89 -3240.05,1966.24 -1518.67,-635.64 -2530.31,-2546.55 -2259.56,-4268.13 270.76,-1721.57 1721.38,-2601.89 3240.05,-1966.25 1518.68,635.65 2530.31,2546.56 2259.56,4268.14zm133.05 55.69c283.86,-1804.88 -776.73,-3808.25 -2368.89,-4474.66 -1592.16,-666.4 -3112.97,256.51 -3396.82,2061.39 -283.86,1804.88 776.73,3808.25 2368.89,4474.66 1592.16,666.4 3112.97,-256.52 3396.82,-2061.39z"/>
    <path id="_32" fill="#E72C3D" d="M18348.49 9993.58c-279.49,1777.11 -1776.9,2685.83 -3344.56,2029.68 -1567.67,-656.15 -2611.94,-2628.7 -2332.45,-4405.81 279.49,-1777.11 1776.9,-2685.83 3344.57,-2029.68 1567.66,656.15 2611.93,2628.7 2332.44,4405.81zm133.06 55.69c292.59,-1860.41 -800.64,-3925.42 -2441.78,-4612.33 -1641.15,-686.91 -3208.75,264.4 -3501.35,2124.82 -292.59,1860.41 800.64,3925.42 2441.78,4612.33 1641.15,686.91 3208.76,-264.4 3501.35,-2124.82z"/>
    <path id="_33" fill="#E72C3D" d="M18437.19 10030.71c-288.22,1832.65 -1832.43,2769.76 -3449.08,2093.1 -1616.65,-676.65 -2693.56,-2710.85 -2405.33,-4543.49 288.22,-1832.65 1832.43,-2769.76 3449.08,-2093.1 1616.65,676.65 2693.56,2710.84 2405.33,4543.49zm133.06 55.69c301.32,-1915.95 -824.53,-4042.6 -2514.67,-4750.02 -1690.14,-707.41 -3304.53,272.3 -3605.86,2188.25 -301.32,1915.95 824.53,4042.6 2514.67,4750.01 1690.14,707.42 3304.54,-272.29 3605.86,-2188.24z"/>
    <path id="_34" fill="#E62C3D" d="M18525.9 10067.84c-296.96,1888.18 -1887.96,2853.69 -3553.6,2156.53 -1665.65,-697.16 -2775.18,-2793 -2478.23,-4681.18 296.96,-1888.18 1887.96,-2853.69 3553.6,-2156.53 1665.65,697.16 2775.19,2793 2478.23,4681.18zm133.05 55.69c310.06,-1971.48 -848.43,-4159.78 -2587.55,-4887.7 -1739.13,-727.92 -3400.32,280.19 -3710.38,2251.67 -310.06,1971.48 848.43,4159.78 2587.56,4887.7 1739.12,727.92 3400.31,-280.19 3710.37,-2251.67z"/>
    <path id="_35" fill="#E62C3D" d="M18614.6 10104.96c-305.69,1943.72 -1943.49,2937.63 -3658.12,2219.96 -1714.63,-717.66 -2856.8,-2875.14 -2551.11,-4818.86 305.69,-1943.71 1943.49,-2937.62 3658.12,-2219.95 1714.63,717.66 2856.8,2875.14 2551.11,4818.85zm133.06 55.69c318.79,-2027.01 -872.33,-4276.95 -2660.45,-5025.37 -1788.12,-748.43 -3496.1,288.08 -3814.89,2315.09 -318.8,2027.02 872.32,4276.96 2660.44,5025.38 1788.12,748.43 3496.1,-288.08 3814.9,-2315.1z"/>
    <path id="_36" fill="#E62C3E" d="M18703.3 10142.09c-314.42,1999.25 -1999.01,3021.56 -3762.63,2283.39 -1763.62,-738.17 -2938.43,-2957.29 -2624,-4956.54 314.42,-1999.25 1999.01,-3021.56 3762.63,-2283.39 1763.62,738.17 2938.43,2957.29 2624,4956.54zm133.06 55.69c327.53,-2082.55 -896.23,-4394.13 -2733.34,-5163.06 -1837.1,-768.93 -3591.88,295.97 -3919.41,2378.53 -327.52,2082.55 896.23,4394.13 2733.34,5163.06 1837.1,768.93 3591.88,-295.98 3919.41,-2378.53z"/>
    <path id="_37" fill="#E52B3E" d="M18792.01 10179.22c-323.16,2054.78 -2054.55,3105.49 -3867.16,2346.81 -1812.61,-758.68 -3020.05,-3039.44 -2696.89,-5094.22 323.16,-2054.78 2054.55,-3105.49 3867.16,-2346.81 1812.61,758.67 3020.05,3039.43 2696.89,5094.22zm133.05 55.69c336.26,-2138.09 -920.13,-4511.31 -2806.22,-5300.74 -1886.1,-789.44 -3687.67,303.86 -4023.93,2441.95 -336.26,2138.09 920.13,4511.31 2806.22,5300.74 1886.1,789.44 3687.67,-303.86 4023.93,-2441.95z"/>
    <path id="_38" fill="#E52B3E" d="M18880.71 10216.35c-331.89,2110.31 -2110.07,3189.42 -3971.67,2410.24 -1861.6,-779.19 -3101.67,-3121.59 -2769.78,-5231.91 331.89,-2110.32 2110.07,-3189.42 3971.67,-2410.24 1861.6,779.18 3101.67,3121.59 2769.78,5231.91zm133.06 55.69c344.99,-2193.63 -944.03,-4628.49 -2879.12,-5438.43 -1935.08,-809.94 -3783.45,311.76 -4128.44,2505.38 -345,2193.62 944.02,4628.49 2879.11,5438.43 1935.08,809.93 3783.45,-311.76 4128.45,-2505.38z"/>
    <path id="_39" fill="#E42B3F" d="M18969.41 10253.47c-340.62,2165.86 -2165.6,3273.35 -4076.18,2473.67 -1910.59,-799.69 -3183.3,-3203.73 -2842.67,-5369.58 340.62,-2165.86 2165.6,-3273.36 4076.19,-2473.67 1910.59,799.68 3183.29,3203.73 2842.66,5369.58zm133.06 55.69c353.73,-2249.15 -967.93,-4745.66 -2952,-5576.1 -1984.08,-830.45 -3879.24,319.65 -4232.97,2568.81 -353.73,2249.15 967.93,4745.66 2952,5576.1 1984.08,830.44 3879.24,-319.65 4232.97,-2568.81z"/>
    <path id="_40" fill="#E42B3F" d="M19058.12 10290.6c-349.36,2221.39 -2221.13,3357.28 -4180.71,2537.09 -1959.58,-820.19 -3264.92,-3285.87 -2915.56,-5507.26 349.36,-2221.39 2221.13,-3357.29 4180.71,-2537.1 1959.58,820.19 3264.92,3285.88 2915.56,5507.27zm133.05 55.69c362.47,-2304.69 -991.82,-4862.84 -3024.89,-5713.79 -2033.06,-850.94 -3975.02,327.55 -4337.48,2632.24 -362.46,2304.69 991.83,4862.84 3024.89,5713.79 2033.06,850.94 3975.02,-327.55 4337.48,-2632.24z"/>
    <path id="_41" fill="#E42B3F" d="M19146.82 10327.73c-358.09,2276.92 -2276.65,3441.21 -4285.22,2600.52 -2008.57,-840.7 -3346.55,-3368.02 -2988.45,-5644.95 358.1,-2276.92 2276.66,-3441.21 4285.22,-2600.52 2008.57,840.69 3346.55,3368.02 2988.45,5644.95zm133.06 55.69c371.19,-2360.23 -1015.73,-4980.02 -3097.78,-5851.47 -2082.06,-871.45 -4070.81,335.44 -4442,2695.66 -371.2,2360.23 1015.72,4980.02 3097.77,5851.47 2082.06,871.45 4070.81,-335.44 4442.01,-2695.66z"/>
    <path id="_42" fill="#E32B40" d="M19235.52 10364.85c-366.83,2332.46 -2332.18,3525.15 -4389.74,2663.95 -2057.56,-861.2 -3428.16,-3450.17 -3061.33,-5782.63 366.83,-2332.45 2332.18,-3525.14 4389.74,-2663.94 2057.56,861.19 3428.16,3450.17 3061.33,5782.62zm133.06 55.69c379.93,-2415.76 -1039.63,-5097.19 -3170.67,-5989.15 -2131.04,-891.95 -4166.59,343.33 -4546.52,2759.09 -379.93,2415.76 1039.63,5097.2 3170.67,5989.15 2131.04,891.96 4166.59,-343.33 4546.52,-2759.09z"/>
    <path id="_43" fill="#E32B40" d="M19324.23 10401.98c-375.57,2387.99 -2387.71,3609.08 -4494.26,2727.38 -2106.55,-881.71 -3509.79,-3532.32 -3134.23,-5920.31 375.57,-2388 2387.72,-3609.08 4494.26,-2727.38 2106.55,881.71 3509.79,3532.32 3134.23,5920.31zm133.05 55.69c388.67,-2471.29 -1063.52,-5214.37 -3243.55,-6126.83 -2180.04,-912.46 -4262.38,351.22 -4651.04,2822.52 -388.67,2471.29 1063.52,5214.37 3243.56,6126.83 2180.03,912.46 4262.37,-351.22 4651.03,-2822.52z"/>
    <path id="_44" fill="#E22A40" d="M19412.93 10439.11c-384.3,2443.53 -2443.24,3693.01 -4598.78,2790.8 -2155.53,-902.21 -3591.41,-3614.46 -3207.11,-6057.99 384.3,-2443.53 2443.24,-3693.01 4598.78,-2790.8 2155.54,902.21 3591.41,3614.46 3207.11,6057.99zm133.06 55.69c397.39,-2526.83 -1087.43,-5331.55 -3316.45,-6264.52 -2229.02,-932.96 -4358.16,359.12 -4755.55,2885.95 -397.4,2526.83 1087.42,5331.55 3316.44,6264.51 2229.02,932.97 4358.16,-359.11 4755.56,-2885.94z"/>
    <path id="_45" fill="#E22A41" d="M19501.63 10476.24c-393.03,2499.06 -2498.76,3776.94 -4703.29,2854.23 -2204.53,-922.72 -3673.03,-3696.61 -3280,-6195.68 393.03,-2499.06 2498.77,-3776.94 4703.29,-2854.23 2204.53,922.72 3673.04,3696.61 3280,6195.68zm133.06 55.69c406.13,-2582.37 -1111.33,-5448.73 -3389.34,-6402.2 -2278.01,-953.47 -4453.94,367.01 -4860.07,2949.37 -406.13,2582.37 1111.33,5448.73 3389.34,6402.2 2278.01,953.47 4453.94,-367.01 4860.07,-2949.37z"/>
    <path id="_46" fill="#E12A41" d="M19590.34 10513.36c-401.77,2554.6 -2554.3,3860.88 -4807.82,2917.66 -2253.51,-943.22 -3754.65,-3778.76 -3352.89,-6333.35 401.77,-2554.6 2554.3,-3860.88 4807.82,-2917.66 2253.51,943.22 3754.65,3778.76 3352.89,6333.35zm133.05 55.69c414.87,-2637.9 -1135.22,-5565.9 -3462.22,-6539.87 -2327,-973.98 -4549.72,374.9 -4964.59,3012.8 -414.87,2637.89 1135.22,5565.9 3462.22,6539.87 2327,973.98 4549.73,-374.9 4964.59,-3012.8z"/>
    <path id="_47" fill="#E12A41" d="M19679.04 10550.49c-410.5,2610.13 -2609.82,3944.81 -4912.33,2981.09 -2302.51,-963.73 -3836.28,-3860.91 -3425.78,-6471.04 410.5,-2610.13 2609.83,-3944.81 4912.33,-2981.09 2302.51,963.73 3836.28,3860.91 3425.78,6471.04zm133.06 55.69c423.6,-2693.43 -1159.13,-5683.08 -3535.12,-6677.56 -2375.99,-994.48 -4645.5,382.79 -5069.1,3076.23 -423.61,2693.43 1159.12,5683.08 3535.11,6677.56 2375.99,994.48 4645.51,-382.8 5069.11,-3076.23z"/>
    <path id="_48" fill="#E02A42" d="M19767.74 10587.62c-419.23,2665.66 -2665.35,4028.74 -5016.84,3044.51 -2351.5,-984.23 -3917.91,-3943.05 -3498.67,-6608.72 419.23,-2665.66 2665.35,-4028.74 5016.85,-3044.51 2351.49,984.23 3917.9,3943.05 3498.66,6608.72zm133.06 55.69c432.33,-2748.97 -1183.02,-5800.26 -3608,-6815.24 -2424.98,-1014.99 -4741.29,390.68 -5173.63,3139.65 -432.33,2748.97 1183.02,5800.26 3608,6815.24 2424.98,1014.99 4741.29,-390.68 5173.63,-3139.65z"/>
    <path id="_49" fill="#E02A42" d="M19856.45 10624.74c-427.97,2721.2 -2720.88,4112.68 -5121.37,3107.94 -2400.48,-1004.73 -3999.52,-4025.19 -3571.56,-6746.4 427.97,-2721.2 2720.89,-4112.67 5121.37,-3107.94 2400.48,1004.74 3999.53,4025.2 3571.56,6746.4zm133.05 55.69c441.07,-2804.5 -1206.92,-5917.43 -3680.89,-6952.92 -2473.97,-1035.49 -4837.07,398.58 -5278.14,3203.08 -441.07,2804.51 1206.92,5917.44 3680.89,6952.93 2473.97,1035.49 4837.07,-398.58 5278.14,-3203.09z"/>
    <path id="_50" fill="#DF2943" d="M19945.15 10661.87c-436.7,2776.74 -2776.41,4196.61 -5225.88,3171.37 -2449.48,-1025.24 -4081.15,-4107.35 -3644.45,-6884.08 436.7,-2776.74 2776.41,-4196.61 5225.88,-3171.37 2449.48,1025.24 4081.15,4107.35 3644.45,6884.08zm133.06 55.69c449.8,-2860.04 -1230.83,-6034.61 -3753.78,-7090.6 -2522.96,-1056 -4932.86,406.47 -5382.66,3266.51 -449.81,2860.03 1230.82,6034.61 3753.78,7090.6 2522.95,1056 4932.85,-406.47 5382.66,-3266.51z"/>
    <path id="_51" fill="#DF2943" d="M20033.85 10699c-445.43,2832.27 -2831.93,4280.54 -5330.4,3234.79 -2498.46,-1045.74 -4162.77,-4189.49 -3717.33,-7021.76 445.43,-2832.27 2831.94,-4280.54 5330.4,-3234.8 2498.46,1045.75 4162.77,4189.5 3717.33,7021.77zm133.06 55.69c458.54,-2915.57 -1254.72,-6151.79 -3826.67,-7228.29 -2571.95,-1076.5 -5028.64,414.37 -5487.18,3329.94 -458.53,2915.57 1254.72,6151.79 3826.67,7228.29 2571.95,1076.49 5028.64,-414.37 5487.18,-3329.94z"/>
    <path id="_52" fill="#DE2943" d="M20122.56 10736.13c-454.17,2887.8 -2887.47,4364.47 -5434.92,3298.22 -2547.45,-1066.25 -4244.4,-4271.64 -3790.23,-7159.45 454.17,-2887.8 2887.47,-4364.47 5434.92,-3298.22 2547.46,1066.25 4244.4,4271.64 3790.23,7159.45zm133.05 55.69c467.27,-2971.11 -1278.62,-6268.97 -3899.56,-7365.97 -2620.93,-1097.01 -5124.42,422.26 -5591.69,3393.36 -467.27,2971.11 1278.62,6268.97 3899.56,7365.97 2620.93,1097 5124.42,-422.26 5591.69,-3393.36z"/>
    <path id="_53" fill="#DE2944" d="M20211.26 10773.25c-462.9,2943.34 -2942.99,4448.4 -5539.44,3361.65 -2596.44,-1086.75 -4326.01,-4353.78 -3863.11,-7297.12 462.9,-2943.34 2942.99,-4448.41 5539.44,-3361.65 2596.44,1086.75 4326.01,4353.78 3863.11,7297.12zm133.06 55.69c476,-3026.64 -1302.52,-6386.14 -3972.45,-7503.65 -2669.93,-1117.5 -5220.21,430.15 -5696.21,3456.8 -476.01,3026.64 1302.52,6386.14 3972.44,7503.64 2669.93,1117.51 5220.21,-430.15 5696.22,-3456.79z"/>
    <path id="_54" fill="#DD2944" d="M20299.96 10810.38c-471.63,2998.87 -2998.52,4532.33 -5643.95,3425.08 -2645.43,-1107.26 -4407.64,-4435.94 -3936,-7434.81 471.64,-2998.88 2998.52,-4532.33 5643.95,-3425.08 2645.43,1107.26 4407.64,4435.93 3936,7434.81zm133.06 55.69c484.74,-3082.18 -1326.42,-6503.32 -4045.34,-7641.33 -2718.91,-1138.01 -5315.99,438.04 -5800.73,3520.22 -484.74,3082.18 1326.42,6503.32 4045.34,7641.33 2718.91,1138.01 5315.99,-438.04 5800.73,-3520.22z"/>
    <path id="_55" fill="#DD2945" d="M20388.67 10847.51c-480.37,3054.41 -3054.05,4616.26 -5748.47,3488.5 -2694.43,-1127.76 -4489.27,-4518.08 -4008.9,-7572.49 480.38,-3054.41 3054.05,-4616.26 5748.48,-3488.5 2694.42,1127.76 4489.26,4518.08 4008.89,7572.49zm133.05 55.69c493.48,-3137.71 -1350.32,-6620.5 -4118.22,-7779.01 -2767.91,-1158.52 -5411.78,445.93 -5905.25,3583.64 -493.47,3137.71 1350.32,6620.49 4118.22,7779.01 2767.91,1158.52 5411.78,-445.93 5905.25,-3583.64z"/>
    <path id="_56" fill="#DC2845" d="M20477.37 10884.63c-489.11,3109.95 -3109.58,4700.2 -5852.99,3551.94 -2743.41,-1148.27 -4570.89,-4600.23 -4081.78,-7710.18 489.11,-3109.94 3109.58,-4700.19 5852.99,-3551.93 2743.41,1148.27 4570.89,4600.23 4081.78,7710.17zm133.06 55.69c502.2,-3193.24 -1374.22,-6737.67 -4191.12,-7916.69 -2816.89,-1179.02 -5507.56,453.83 -6009.76,3647.07 -502.21,3193.25 1374.21,6737.67 4191.11,7916.7 2816.89,1179.02 5507.56,-453.83 6009.77,-3647.08z"/>
    <path id="_57" fill="#DC2845" d="M20566.07 10921.76c-497.84,3165.48 -3165.1,4784.13 -5957.5,3615.36 -2792.4,-1168.77 -4652.51,-4682.37 -4154.67,-7847.85 497.84,-3165.48 3165.1,-4784.13 5957.5,-3615.36 2792.41,1168.77 4652.51,4682.37 4154.67,7847.85zm133.06 55.69c510.94,-3248.78 -1398.12,-6854.85 -4264,-8054.37 -2865.89,-1199.53 -5603.35,461.72 -6114.29,3710.5 -510.94,3248.78 1398.12,6854.84 4264,8054.37 2865.89,1199.53 5603.35,-461.72 6114.29,-3710.5z"/>
    <path id="_58" fill="#DB2846" d="M20654.78 10958.89c-506.58,3221.01 -3220.64,4868.06 -6062.03,3678.78 -2841.39,-1189.27 -4734.13,-4764.52 -4227.56,-7985.53 506.58,-3221.01 3220.64,-4868.06 6062.03,-3678.79 2841.39,1189.28 4734.13,4764.52 4227.56,7985.54zm133.05 55.69c519.68,-3304.32 -1422.01,-6972.03 -4336.89,-8192.06 -2914.87,-1220.03 -5699.13,469.61 -6218.8,3773.93 -519.68,3304.32 1422.02,6972.02 4336.89,8192.06 2914.87,1220.03 5699.13,-469.62 6218.8,-3773.93z"/>
    <path id="_59" fill="#DB2846" d="M20743.48 10996.02c-515.31,3276.54 -3276.16,4951.99 -6166.54,3742.21 -2890.38,-1209.78 -4815.76,-4846.67 -4300.45,-8123.22 515.31,-3276.54 3276.16,-4951.99 6166.54,-3742.21 2890.38,1209.78 4815.76,4846.67 4300.45,8123.22zm133.06 55.69c528.4,-3359.85 -1445.92,-7089.21 -4409.78,-8329.74 -2963.87,-1240.54 -5794.92,477.5 -6323.32,3837.35 -528.41,3359.85 1445.91,7089.2 4409.78,8329.74 2963.86,1240.54 5794.91,-477.5 6323.32,-3837.35z"/>
    <path id="_60" fill="#DA2847" d="M20832.18 11033.14c-524.04,3332.09 -3331.69,5035.93 -6271.06,3805.64 -2939.37,-1230.28 -4897.37,-4928.81 -4373.33,-8260.89 524.04,-3332.09 3331.69,-5035.93 6271.06,-3805.65 2939.37,1230.29 4897.38,4928.82 4373.33,8260.9zm133.06 55.69c537.14,-3415.38 -1469.82,-7206.38 -4482.67,-8467.42 -3012.85,-1261.04 -5890.69,485.4 -6427.84,3900.79 -537.14,3415.38 1469.82,7206.37 4482.67,8467.42 3012.85,1261.04 5890.7,-485.4 6427.84,-3900.79z"/>
    <path id="_61" fill="#DA2747" d="M20920.89 11070.27c-532.78,3387.62 -3387.22,5119.86 -6375.58,3869.07 -2988.36,-1250.79 -4979,-5010.96 -4446.23,-8398.58 532.78,-3387.62 3387.22,-5119.86 6375.58,-3869.07 2988.36,1250.79 4979,5010.96 4446.23,8398.58zm133.05 55.69c545.88,-3470.92 -1493.71,-7323.55 -4555.56,-8605.1 -3061.84,-1281.55 -5986.47,493.29 -6532.35,3964.21 -545.88,3470.92 1493.71,7323.55 4555.56,8605.1 3061.84,1281.55 5986.47,-493.29 6532.35,-3964.21z"/>
    <path id="_62" fill="#D92748" d="M21009.59 11107.4c-541.51,3443.15 -3442.75,5203.79 -6480.1,3932.49 -3037.34,-1271.29 -5060.62,-5093.11 -4519.11,-8536.26 541.51,-3443.15 3442.75,-5203.79 6480.1,-3932.49 3037.34,1271.29 5060.62,5093.1 4519.11,8536.26zm133.06 55.69c554.61,-3526.46 -1517.62,-7440.73 -4628.45,-8742.79 -3110.83,-1302.05 -6082.26,501.19 -6636.87,4027.64 -554.62,3526.46 1517.61,7440.73 4628.44,8742.78 3110.84,1302.06 6082.26,-501.18 6636.88,-4027.63z"/>
    <path id="_63" fill="#D82748" d="M21098.29 11144.52c-550.24,3498.69 -3498.27,5287.73 -6584.61,3995.93 -3086.34,-1291.8 -5142.25,-5175.26 -4592,-8673.95 550.24,-3498.68 3498.27,-5287.72 6584.61,-3995.92 3086.34,1291.8 5142.25,5175.26 4592,8673.94zm133.06 55.69c563.34,-3581.98 -1541.52,-7557.9 -4701.34,-8880.46 -3159.82,-1322.56 -6178.04,509.08 -6741.39,4091.06 -563.34,3581.99 1541.52,7557.91 4701.34,8880.47 3159.82,1322.56 6178.04,-509.08 6741.39,-4091.07z"/>
    <path id="_64" fill="#D82749" d="M21187 11181.65c-558.98,3554.22 -3553.81,5371.66 -6689.13,4059.35 -3135.33,-1312.3 -5223.87,-5257.4 -4664.9,-8811.62 558.98,-3554.22 3553.81,-5371.66 6689.14,-4059.35 3135.32,1312.3 5223.87,5257.4 4664.89,8811.62zm133.05 55.69c572.08,-3637.52 -1565.41,-7675.08 -4774.22,-9018.15 -3208.81,-1343.06 -6273.83,516.97 -6845.91,4154.5 -572.08,3637.52 1565.41,7675.08 4774.22,9018.14 3208.82,1343.06 6273.83,-516.96 6845.91,-4154.49z"/>
    <path id="_65" fill="#D72749" d="M21275.7 11218.78c-567.71,3609.75 -3609.33,5455.59 -6793.65,4122.78 -3184.31,-1332.81 -5305.49,-5339.55 -4737.78,-8949.31 567.71,-3609.76 3609.33,-5455.59 6793.65,-4122.78 3184.32,1332.81 5305.49,5339.55 4737.78,8949.31zm133.06 55.69c580.81,-3693.06 -1589.32,-7792.26 -4847.12,-9155.83 -3257.8,-1363.57 -6369.61,524.86 -6950.42,4217.92 -580.82,3693.06 1589.31,7792.26 4847.11,9155.83 3257.8,1363.56 6369.61,-524.86 6950.43,-4217.92z"/>
    <path id="_66" fill="#D72649" d="M21364.4 11255.91c-576.44,3665.29 -3664.86,5539.51 -6898.16,4186.2 -3233.31,-1353.31 -5387.12,-5421.7 -4810.67,-9086.99 576.44,-3665.29 3664.86,-5539.52 6898.16,-4186.2 3233.31,1353.31 5387.12,5421.69 4810.67,9086.99zm133.06 55.69c589.55,-3748.6 -1613.21,-7909.44 -4920,-9293.51 -3306.79,-1384.07 -6465.4,532.75 -7054.95,4281.34 -589.54,3748.6 1613.22,7909.44 4920.01,9293.51 3306.79,1384.07 6465.39,-532.75 7054.94,-4281.34z"/>
    <path id="_67" fill="#D6264A" d="M21453.11 11293.03c-585.18,3720.83 -3720.39,5623.45 -7002.69,4249.64 -3282.29,-1373.82 -5468.74,-5503.85 -4883.56,-9224.67 585.18,-3720.83 3720.39,-5623.46 7002.69,-4249.64 3282.29,1373.82 5468.74,5503.85 4883.56,9224.67zm133.05 55.69c598.28,-3804.13 -1637.11,-8026.61 -4992.89,-9431.19 -3355.78,-1404.57 -6561.18,540.65 -7159.46,4344.78 -598.28,3804.12 1637.11,8026.61 4992.89,9431.19 3355.78,1404.57 6561.18,-540.65 7159.46,-4344.78z"/>
    <path id="_68" fill="#D5264A" d="M21541.81 11330.16c-593.91,3776.36 -3775.92,5707.38 -7107.2,4313.06 -3331.29,-1394.32 -5550.36,-5585.99 -4956.45,-9362.35 593.92,-3776.36 3775.92,-5707.38 7107.2,-4313.06 3331.29,1394.32 5550.36,5585.99 4956.45,9362.35zm133.06 55.69c607.01,-3859.66 -1661.02,-8143.79 -5065.79,-9568.87 -3404.76,-1425.08 -6656.96,548.54 -7263.97,4408.2 -607.02,3859.66 1661.01,8143.79 5065.78,9568.87 3404.77,1425.08 6656.96,-548.54 7263.98,-4408.2z"/>
    <path id="_69" fill="#D5264B" d="M21630.51 11367.29c-602.64,3831.89 -3831.44,5791.31 -7211.72,4376.48 -3380.27,-1414.82 -5631.98,-5668.13 -5029.33,-9500.03 602.65,-3831.89 3831.44,-5791.31 7211.72,-4376.49 3380.27,1414.83 5631.98,5668.14 5029.33,9500.04zm133.06 55.69c615.75,-3915.2 -1684.91,-8260.97 -5138.67,-9706.56 -3453.76,-1445.58 -6752.75,556.43 -7368.5,4471.63 -615.75,3915.2 1684.91,8260.97 5138.67,9706.56 3453.76,1445.58 6752.75,-556.44 7368.5,-4471.63z"/>
    <path id="_70" fill="#D4264B" d="M21719.22 11404.41c-611.39,3887.43 -3886.98,5875.25 -7316.24,4439.92 -3429.26,-1435.33 -5713.61,-5750.29 -5102.23,-9637.72 611.39,-3887.43 3886.98,-5875.24 7316.24,-4439.91 3429.27,1435.33 5713.61,5750.28 5102.23,9637.71zm133.05 55.69c624.49,-3970.73 -1708.81,-8378.14 -5211.56,-9844.23 -3502.74,-1466.09 -6848.53,564.32 -7473.01,4535.05 -624.48,3970.74 1708.81,8378.15 5211.56,9844.24 3502.75,1466.09 6848.53,-564.32 7473.01,-4535.06z"/>
    <path id="_71" fill="#D3254C" d="M21807.92 11441.54c-620.12,3942.97 -3942.5,5959.18 -7420.75,4503.34 -3478.26,-1455.83 -5795.24,-5832.43 -5175.12,-9775.39 620.12,-3942.97 3942.5,-5959.18 7420.76,-4503.34 3478.25,1455.83 5795.23,5832.43 5175.11,9775.39zm133.06 55.69c633.21,-4026.27 -1732.71,-8495.32 -5284.45,-9981.92 -3551.74,-1486.59 -6944.32,572.22 -7577.53,4598.49 -633.22,4026.26 1732.71,8495.32 5284.44,9981.92 3551.74,1486.59 6944.32,-572.22 7577.54,-4598.49z"/>
    <path id="_72" fill="#D3254C" d="M21896.62 11478.67c-628.85,3998.5 -3998.03,6043.11 -7525.27,4566.77 -3527.24,-1476.34 -5876.85,-5914.58 -5248,-9913.08 628.85,-3998.5 3998.03,-6043.11 7525.27,-4566.77 3527.24,1476.34 5876.85,5914.58 5248,9913.08zm133.06 55.69c641.95,-4081.8 -1756.61,-8612.5 -5357.34,-10119.6 -3600.72,-1507.1 -7040.1,580.11 -7682.05,4661.91 -641.95,4081.8 1756.61,8612.5 5357.34,10119.6 3600.73,1507.1 7040.1,-580.11 7682.05,-4661.91z"/>
    <path id="_73" fill="#D2254D" d="M21985.33 11515.8c-637.59,4054.03 -4053.56,6127.04 -7629.79,4630.19 -3576.24,-1496.84 -5958.48,-5996.72 -5320.9,-10050.76 637.59,-4054.03 4053.56,-6127.04 7629.79,-4630.19 3576.24,1496.84 5958.48,5996.72 5320.9,10050.76zm133.05 55.69c650.69,-4137.34 -1780.51,-8729.68 -5430.22,-10257.29 -3649.72,-1527.6 -7135.88,588.01 -7786.57,4725.34 -650.69,4137.34 1780.51,8729.68 5430.22,10257.28 3649.72,1527.61 7135.89,-588 7786.57,-4725.33z"/>
    <path id="_74" fill="#D1254D" d="M22074.03 11552.92c-646.32,4109.57 -4109.09,6210.98 -7734.31,4693.63 -3625.22,-1517.35 -6040.1,-6078.87 -5393.78,-10188.44 646.32,-4109.57 4109.09,-6210.98 7734.31,-4693.63 3625.22,1517.35 6040.1,6078.87 5393.78,10188.44zm133.06 55.69c659.41,-4192.87 -1804.41,-8846.85 -5503.12,-10394.96 -3698.71,-1548.11 -7231.66,595.89 -7891.08,4788.77 -659.42,4192.87 1804.4,8846.85 5503.11,10394.96 3698.71,1548.11 7231.67,-595.9 7891.09,-4788.77z"/>
    <path id="_75" fill="#D1244E" d="M22162.73 11590.05c-655.05,4165.1 -4164.61,6294.91 -7838.82,4757.05 -3674.21,-1537.85 -6121.72,-6161.02 -5466.67,-10326.12 655.05,-4165.1 4164.61,-6294.91 7838.82,-4757.05 3674.21,1537.85 6121.73,6161.02 5466.67,10326.12zm133.06 55.69c668.15,-4248.41 -1828.31,-8964.03 -5576,-10532.64 -3747.7,-1568.62 -7327.45,603.78 -7995.61,4852.19 -668.15,4248.4 1828.31,8964.03 5576.01,10532.64 3747.69,1568.62 7327.44,-603.78 7995.6,-4852.19z"/>
    <path id="_76" fill="#D0244E" d="M22251.44 11627.18c-663.79,4220.63 -4220.15,6378.84 -7943.35,4820.48 -3723.2,-1558.37 -6203.34,-6243.17 -5539.56,-10463.81 663.79,-4220.64 4220.15,-6378.84 7943.35,-4820.48 3723.2,1558.36 6203.34,6243.17 5539.56,10463.81zm133.05 55.69c676.89,-4303.94 -1852.21,-9081.21 -5648.89,-10670.33 -3796.69,-1589.12 -7423.23,611.68 -8100.12,4915.62 -676.89,4303.94 1852.21,9081.21 5648.89,10670.33 3796.69,1589.12 7423.23,-611.68 8100.12,-4915.62z"/>
    <path id="_77" fill="#D0244F" d="M22340.14 11664.3c-672.52,4276.18 -4275.67,6462.78 -8047.86,4883.91 -3772.19,-1578.87 -6284.97,-6325.31 -5612.45,-10601.49 672.52,-4276.17 4275.67,-6462.77 8047.86,-4883.9 3772.19,1578.86 6284.97,6325.31 5612.45,10601.48zm133.06 55.69c685.62,-4359.47 -1876.11,-9198.38 -5721.79,-10808 -3845.67,-1609.63 -7519.01,619.57 -8204.63,4979.04 -685.63,4359.48 1876.1,9198.39 5721.78,10808.01 3845.67,1609.63 7519.01,-619.57 8204.64,-4979.05z"/>
    <path id="_78" fill="#CF244F" d="M22428.84 11701.43c-681.25,4331.71 -4331.2,6546.71 -8152.38,4947.33 -3821.18,-1599.37 -6366.59,-6407.45 -5685.33,-10739.16 681.25,-4331.71 4331.2,-6546.71 8152.38,-4947.34 3821.18,1599.37 6366.59,6407.46 5685.33,10739.17zm133.06 55.69c694.35,-4415.01 -1900.01,-9315.56 -5794.67,-10945.69 -3894.67,-1630.13 -7614.8,627.47 -8309.16,5042.48 -694.35,4415.01 1900.01,9315.56 5794.67,10945.69 3894.67,1630.12 7614.8,-627.47 8309.16,-5042.48z"/>
    <path id="_79" fill="#CE2350" d="M22517.55 11738.56c-689.99,4387.24 -4386.73,6630.63 -8256.9,5010.76 -3870.17,-1619.88 -6448.21,-6489.61 -5758.23,-10876.85 689.99,-4387.24 4386.73,-6630.64 8256.9,-5010.76 3870.17,1619.87 6448.22,6489.61 5758.23,10876.85zm133.05 55.69c703.09,-4470.55 -1923.9,-9432.74 -5867.56,-11083.37 -3943.65,-1650.63 -7710.58,635.36 -8413.67,5105.9 -703.09,4470.54 1923.91,9432.74 5867.56,11083.37 3943.65,1650.63 7710.58,-635.36 8413.67,-5105.9z"/>
    <path id="_80" fill="#CD2351" d="M22606.25 11775.68c-698.72,4442.78 -4442.26,6714.57 -8361.41,5074.19 -3919.16,-1640.38 -6529.84,-6571.75 -5831.12,-11014.53 698.72,-4442.77 4442.26,-6714.57 8361.42,-5074.19 3919.15,1640.38 6529.83,6571.76 5831.11,11014.53zm133.05 55.7c711.83,-4526.08 -1947.8,-9549.92 -5940.44,-11221.06 -3992.65,-1671.13 -7806.37,643.25 -8518.19,5169.33 -711.83,4526.08 1947.8,9549.92 5940.44,11221.06 3992.65,1671.13 7806.37,-643.26 8518.19,-5169.33z"/>
    <path id="_81" fill="#CD2351" d="M22694.95 11812.81c-707.45,4498.31 -4497.78,6798.5 -8465.93,5137.62 -3968.15,-1660.89 -6611.46,-6653.9 -5904,-11152.21 707.45,-4498.32 4497.78,-6798.5 8465.93,-5137.62 3968.15,1660.88 6611.46,6653.9 5904,11152.21zm133.06 55.69c720.56,-4581.61 -1971.71,-9667.09 -6013.34,-11358.73 -4041.63,-1691.64 -7902.15,651.14 -8622.71,5232.76 -720.56,4581.61 1971.71,9667.09 6013.34,11358.73 4041.63,1691.64 7902.15,-651.14 8622.71,-5232.76z"/>
    <path id="_82" fill="#CC2352" d="M22783.66 11849.94c-716.19,4553.85 -4553.32,6882.43 -8570.45,5201.04 -4017.14,-1681.39 -6693.09,-6736.04 -5976.9,-11289.89 716.2,-4553.85 4553.32,-6882.43 8570.45,-5201.04 4017.14,1681.39 6693.09,6736.04 5976.9,11289.89zm133.05 55.69c729.29,-4637.15 -1995.6,-9784.27 -6086.22,-11496.42 -4090.63,-1712.14 -7997.94,659.04 -8727.23,5296.19 -729.29,4637.15 1995.6,9784.27 6086.23,11496.41 4090.62,1712.15 7997.93,-659.03 8727.22,-5296.18z"/>
    <path id="_83" fill="#CB2352" d="M22872.36 11887.07c-724.93,4609.38 -4608.84,6966.36 -8674.97,5264.47 -4066.12,-1701.9 -6774.7,-6818.2 -6049.78,-11427.58 724.93,-4609.38 4608.84,-6966.36 8674.97,-5264.47 4066.13,1701.9 6774.7,6818.2 6049.78,11427.58zm133.05 55.69c738.03,-4692.69 -2019.5,-9901.45 -6159.11,-11634.1 -4139.61,-1732.65 -8093.72,666.93 -8831.74,5359.61 -738.03,4692.68 2019.5,9901.45 6159.11,11634.1 4139.61,1732.65 8093.72,-666.93 8831.74,-5359.61z"/>
    <path id="_84" fill="#CB2253" d="M22961.06 11924.19c-733.66,4664.92 -4664.37,7050.3 -8779.48,5327.9 -4115.12,-1722.4 -6856.33,-6900.34 -6122.67,-11565.25 733.66,-4664.92 4664.37,-7050.3 8779.48,-5327.9 4115.12,1722.4 6856.33,6900.34 6122.67,11565.25zm133.06 55.69c746.76,-4748.21 -2043.4,-10018.62 -6232.01,-11771.78 -4188.6,-1753.15 -8189.5,674.83 -8936.26,5423.04 -746.76,4748.22 2043.41,10018.63 6232.01,11771.78 4188.6,1753.16 8189.5,-674.82 8936.26,-5423.04z"/>
    <path id="_85" fill="#CA2253" d="M23049.77 11961.32c-742.4,4720.45 -4719.9,7134.23 -8884.01,5391.33 -4164.1,-1742.91 -6937.95,-6982.49 -6195.56,-11702.94 742.4,-4720.45 4719.9,-7134.23 8884.01,-5391.33 4164.1,1742.91 6937.95,6982.49 6195.56,11702.94zm133.05 55.69c755.5,-4803.75 -2067.3,-10135.8 -6304.89,-11909.46 -4237.59,-1773.66 -8285.29,682.71 -9040.78,5486.47 -755.49,4803.75 2067.3,10135.8 6304.89,11909.46 4237.59,1773.66 8285.29,-682.72 9040.78,-5486.47z"/>
    <path id="_86" fill="#C92254" d="M23138.47 11998.45c-751.13,4775.98 -4775.42,7218.16 -8988.52,5454.75 -4213.1,-1763.41 -7019.58,-7064.63 -6268.45,-11840.62 751.13,-4775.98 4775.43,-7218.16 8988.52,-5454.75 4213.1,1763.41 7019.58,7064.63 6268.45,11840.62zm133.05 55.69c764.23,-4859.29 -2091.2,-10252.98 -6377.78,-12047.14 -4286.58,-1794.17 -8381.07,690.6 -9145.29,5549.89 -764.23,4859.29 2091.2,10252.98 6377.78,12047.14 4286.58,1794.17 8381.07,-690.6 9145.29,-5549.89z"/>
    <path id="_87" fill="#C92254" d="M23227.17 12035.57c-759.86,4831.53 -4830.95,7302.1 -9093.03,5518.19 -4262.09,-1783.92 -7101.2,-7146.79 -6341.34,-11978.31 759.86,-4831.52 4830.95,-7302.09 9093.04,-5518.18 4262.08,1783.92 7101.19,7146.78 6341.33,11978.3zm133.06 55.7c772.96,-4914.83 -2115.1,-10370.16 -6450.67,-12184.83 -4335.57,-1814.67 -8476.85,698.5 -9249.82,5613.32 -772.96,4914.83 2115.1,10370.16 6450.67,12184.83 4335.57,1814.67 8476.86,-698.5 9249.82,-5613.32z"/>
    <path id="_88" fill="#C82155" d="M23315.88 12072.7c-768.6,4887.06 -4886.48,7386.03 -9197.56,5581.61 -4311.07,-1804.42 -7182.82,-7228.93 -6414.23,-12115.98 768.6,-4887.06 4886.49,-7386.03 9197.56,-5581.61 4311.07,1804.42 7182.82,7228.93 6414.23,12115.98zm133.05 55.69c781.7,-4970.35 -2139,-10487.33 -6523.56,-12322.5 -4384.56,-1835.18 -8572.63,706.39 -9354.33,5676.75 -781.7,4970.35 2139,10487.33 6523.56,12322.5 4384.56,1835.18 8572.64,-706.39 9354.33,-5676.75z"/>
    <path id="_89" fill="#C72155" d="M23404.58 12109.83c-777.33,4942.59 -4942.01,7469.96 -9302.07,5645.03 -4360.07,-1824.92 -7264.45,-7311.07 -6487.12,-12253.66 777.33,-4942.59 4942.01,-7469.96 9302.07,-5645.04 4360.07,1824.93 7264.45,7311.08 6487.12,12253.67zm133.05 55.69c790.44,-5025.89 -2162.9,-10604.51 -6596.44,-12460.19 -4433.55,-1855.68 -8668.42,714.29 -9458.85,5740.18 -790.43,5025.89 2162.9,10604.51 6596.44,12460.19 4433.55,1855.68 8668.42,-714.29 9458.85,-5740.18z"/>
    <path id="_90" fill="#C62156" d="M23493.28 12146.96c-786.06,4998.12 -4997.53,7553.89 -9406.59,5708.46 -4409.05,-1845.43 -7346.07,-7393.22 -6560,-12391.35 786.06,-4998.12 4997.54,-7553.89 9406.59,-5708.46 4409.05,1845.43 7346.07,7393.22 6560,12391.35zm133.06 55.69c799.16,-5081.43 -2186.8,-10721.69 -6669.34,-12597.87 -4482.54,-1876.19 -8764.2,722.18 -9563.37,5803.6 -799.16,5081.43 2186.8,10721.69 6669.34,12597.87 4482.54,1876.19 8764.2,-722.18 9563.37,-5803.6z"/>
    <path id="_91" fill="#C62157" d="M23581.99 12184.08c-794.8,5053.66 -5053.07,7637.83 -9511.11,5771.89 -4458.05,-1865.93 -7427.69,-7475.37 -6632.9,-12529.02 794.8,-5053.66 5053.07,-7637.83 9511.11,-5771.89 4458.05,1865.93 7427.69,7475.36 6632.9,12529.02zm133.05 55.69c807.9,-5136.96 -2210.7,-10838.86 -6742.22,-12735.55 -4531.53,-1896.69 -8859.99,730.07 -9667.89,5867.03 -807.9,5136.97 2210.7,10838.87 6742.23,12735.56 4531.52,1896.68 8859.98,-730.07 9667.88,-5867.04z"/>
    <path id="_92" fill="#C52057" d="M23670.69 12221.21c-803.53,5109.19 -5108.59,7721.75 -9615.63,5835.32 -4507.03,-1886.44 -7509.31,-7557.52 -6705.78,-12666.71 803.53,-5109.2 5108.6,-7721.76 9615.63,-5835.32 4507.03,1886.44 7509.31,7557.52 6705.78,12666.71zm133.05 55.69c816.64,-5192.49 -2234.59,-10956.04 -6815.11,-12873.23 -4580.52,-1917.2 -8955.77,737.96 -9772.4,5930.46 -816.64,5192.49 2234.6,10956.04 6815.11,12873.23 4580.52,1917.19 8955.77,-737.96 9772.4,-5930.46z"/>
    <path id="_93" fill="#C42058" d="M23759.39 12258.34c-812.26,5164.73 -5164.12,7805.68 -9720.14,5898.74 -4556.02,-1906.94 -7590.94,-7639.66 -6778.67,-12804.39 812.26,-5164.73 5164.12,-7805.69 9720.14,-5898.74 4556.02,1906.94 7590.94,7639.66 6778.67,12804.39zm133.06 55.69c825.36,-5248.03 -2258.5,-11073.22 -6888.01,-13010.92 -4629.5,-1937.69 -9051.55,745.86 -9876.92,5993.89 -825.36,5248.03 2258.5,11073.22 6888.01,13010.91 4629.5,1937.7 9051.55,-745.85 9876.92,-5993.88z"/>
    <path id="_94" fill="#C32058" d="M23848.1 12295.46c-821,5220.27 -5219.65,7889.62 -9824.67,5962.18 -4605.01,-1927.45 -7672.55,-7721.81 -6851.55,-12942.08 820.99,-5220.26 5219.65,-7889.61 9824.66,-5962.17 4605.01,1927.45 7672.56,7721.81 6851.56,12942.07zm133.05 55.7c834.1,-5303.57 -2282.4,-11190.4 -6960.89,-13148.6 -4678.5,-1958.2 -9147.34,753.75 -9981.44,6057.31 -834.1,5303.57 2282.4,11190.39 6960.89,13148.6 4678.5,1958.2 9147.34,-753.75 9981.44,-6057.31z"/>
    <path id="_95" fill="#C32059" d="M23936.8 12332.59c-829.73,5275.8 -5275.18,7973.55 -9929.18,6025.6 -4654,-1947.95 -7754.18,-7803.96 -6924.45,-13079.75 829.74,-5275.8 5275.18,-7973.55 9929.18,-6025.6 4654,1947.95 7754.18,7803.95 6924.45,13079.75zm133.05 55.69c842.84,-5359.1 -2306.29,-11307.57 -7033.78,-13286.27 -4727.48,-1978.71 -9243.12,761.64 -10085.95,6120.74 -842.84,5359.1 2306.29,11307.56 7033.78,13286.27 4727.48,1978.71 9243.12,-761.64 10085.95,-6120.74z"/>
    <path id="_96" fill="#C21F59" d="M24025.5 12369.72c-838.46,5331.33 -5330.7,8057.48 -10033.69,6089.03 -4702.99,-1968.46 -7835.81,-7886.11 -6997.34,-13217.44 838.47,-5331.33 5330.71,-8057.48 10033.7,-6089.03 4702.99,1968.46 7835.8,7886.11 6997.33,13217.44zm133.06 55.69c851.57,-5414.63 -2330.2,-11424.75 -7106.67,-13423.96 -4776.48,-1999.21 -9338.91,769.53 -10190.48,6184.17 -851.57,5414.63 2330.2,11424.74 7106.67,13423.96 4776.48,1999.21 9338.91,-769.54 10190.48,-6184.17z"/>
    <path id="_97" fill="#C11F5A" d="M24114.21 12406.85c-847.21,5386.86 -5386.24,8141.41 -10138.22,6152.45 -4751.98,-1988.96 -7917.43,-7968.25 -7070.22,-13355.12 847.2,-5386.86 5386.23,-8141.41 10138.21,-6152.45 4751.98,1988.96 7917.43,7968.25 7070.23,13355.12zm133.05 55.69c860.3,-5470.17 -2354.09,-11541.93 -7179.56,-13561.64 -4825.46,-2019.72 -9434.69,777.42 -10294.99,6247.59 -860.3,5470.17 2354.1,11541.92 7179.56,13561.64 4825.46,2019.72 9434.69,-777.42 10294.99,-6247.59z"/>
    <path id="_98" fill="#C11F5B" d="M24202.91 12443.97c-855.94,5442.41 -5441.76,8225.35 -10242.73,6215.88 -4800.97,-2009.46 -7999.05,-8050.39 -7143.12,-13492.79 855.94,-5442.41 5441.76,-8225.35 10242.73,-6215.89 4800.97,2009.47 7999.06,8050.4 7143.12,13492.8zm133.05 55.69c869.04,-5525.7 -2377.99,-11659.1 -7252.44,-13699.32 -4874.46,-2040.22 -9530.48,785.32 -10399.51,6311.02 -869.04,5525.71 2377.99,11659.1 7252.45,13699.33 4874.45,2040.22 9530.47,-785.32 10399.5,-6311.03z"/>
    <path id="_99" fill="#C01F5B" d="M24291.61 12481.1c-864.67,5497.94 -5497.29,8309.28 -10347.25,6279.31 -4849.96,-2029.97 -8080.67,-8132.55 -7216,-13630.48 864.67,-5497.94 5497.29,-8309.28 10347.25,-6279.31 4849.96,2029.97 8080.67,8132.54 7216,13630.48zm133.06 55.69c877.77,-5581.24 -2401.9,-11776.28 -7325.34,-13837 -4923.44,-2060.73 -9626.26,793.21 -10504.03,6374.45 -877.77,5581.24 2401.9,11776.27 7325.34,13837 4923.44,2060.73 9626.26,-793.21 10504.03,-6374.45z"/>
    <path id="_100" fill="#BF1E5C" d="M24380.32 12518.23c-873.41,5553.47 -5552.82,8393.21 -10451.77,6342.73 -4898.95,-2050.47 -8162.3,-8214.69 -7288.89,-13768.16 873.4,-5553.47 5552.81,-8393.21 10451.76,-6342.74 4898.95,2050.48 8162.3,8214.7 7288.9,13768.17zm133.05 55.69c886.51,-5636.78 -2425.79,-11893.45 -7398.23,-13974.69 -4972.43,-2081.23 -9722.04,801.11 -10608.54,6437.88 -886.5,5636.77 2425.79,11893.45 7398.23,13974.69 4972.43,2081.23 9722.04,-801.11 10608.54,-6437.88z"/>
    <path id="_101" fill="#BE1E5C" d="M24469.02 12555.35c-882.14,5609.01 -5608.35,8477.15 -10556.29,6406.17 -4947.93,-2070.98 -8243.92,-8296.84 -7361.78,-13905.85 882.14,-5609 5608.35,-8477.14 10556.29,-6406.16 4947.93,2070.98 8243.92,8296.84 7361.78,13905.84zm133.05 55.7c895.24,-5692.31 -2449.69,-12010.63 -7471.11,-14112.37 -5021.42,-2101.74 -9817.82,808.99 -10713.06,6501.3 -895.24,5692.31 2449.69,12010.63 7471.11,14112.37 5021.42,2101.74 9817.83,-809 10713.06,-6501.3z"/>
    <path id="_102" fill="#BD1E5D" d="M24557.72 12592.48c-890.87,5664.54 -5663.87,8561.08 -10660.8,6469.59 -4996.93,-2091.48 -8325.54,-8378.98 -7434.67,-14043.52 890.87,-5664.54 5663.87,-8561.08 10660.8,-6469.59 4996.93,2091.48 8325.54,8378.98 7434.67,14043.52zm133.06 55.69c903.97,-5747.84 -2473.6,-12127.8 -7544.01,-14250.05 -5070.41,-2122.24 -9913.6,816.89 -10817.58,6564.74 -903.97,5747.84 2473.6,12127.8 7544.01,14250.04 5070.41,2122.25 9913.6,-816.88 10817.58,-6564.73z"/>
    <path id="_103" fill="#BD1E5E" d="M24646.43 12629.61c-899.61,5720.07 -5719.41,8645.01 -10765.32,6533.02 -5045.92,-2111.99 -8407.17,-8461.13 -7507.56,-14181.21 899.6,-5720.08 5719.4,-8645.01 10765.32,-6533.02 5045.91,2111.99 8407.16,8461.13 7507.56,14181.21zm133.05 55.69c912.71,-5803.38 -2497.49,-12244.98 -7616.89,-14387.73 -5119.4,-2142.75 -10009.39,824.78 -10922.1,6628.16 -912.71,5803.38 2497.49,12244.98 7616.89,14387.73 5119.4,2142.75 10009.39,-824.78 10922.1,-6628.16z"/>
    <path id="_104" fill="#BC1D5E" d="M24735.13 12666.74c-908.34,5775.61 -5774.93,8728.94 -10869.84,6596.44 -5094.91,-2132.49 -8488.79,-8543.28 -7580.45,-14318.89 908.34,-5775.61 5774.93,-8728.94 10869.84,-6596.44 5094.91,2132.49 8488.79,8543.28 7580.45,14318.89zm133.05 55.69c921.45,-5858.92 -2521.39,-12362.16 -7689.78,-14525.42 -5168.39,-2163.25 -10105.17,832.68 -11026.61,6691.59 -921.44,5858.91 2521.39,12362.16 7689.78,14525.41 5168.39,2163.25 10105.17,-832.67 11026.61,-6691.58z"/>
    <path id="_105" fill="#BB1D5F" d="M24823.83 12703.86c-917.07,5831.15 -5830.46,8812.87 -10974.35,6659.88 -5143.9,-2153 -8570.42,-8625.43 -7653.34,-14456.57 917.07,-5831.15 5830.46,-8812.88 10974.35,-6659.88 5143.9,2153 8570.42,8625.43 7653.34,14456.57zm133.06 55.69c930.17,-5914.44 -2545.29,-12479.33 -7762.67,-14663.09 -5217.38,-2183.76 -10200.96,840.57 -11131.14,6755.01 -930.17,5914.45 2545.3,12479.34 7762.67,14663.1 5217.38,2183.75 10200.96,-840.57 11131.14,-6755.02z"/>
    <path id="_106" fill="#BA1D5F" d="M24912.54 12740.99c-925.81,5886.68 -5885.99,8896.8 -11078.88,6723.3 -5192.88,-2173.5 -8652.03,-8707.57 -7726.22,-14594.25 925.8,-5886.68 5885.98,-8896.81 11078.87,-6723.3 5192.88,2173.5 8652.03,8707.57 7726.23,14594.25zm133.05 55.69c938.91,-5969.98 -2569.19,-12596.51 -7835.56,-14800.77 -5266.37,-2204.26 -10296.74,848.46 -11235.65,6818.44 -938.91,5969.98 2569.19,12596.51 7835.56,14800.77 5266.37,2204.26 10296.74,-848.46 11235.65,-6818.44z"/>
    <path id="_107" fill="#BA1C60" d="M25001.24 12778.12c-934.54,5942.21 -5941.52,8980.73 -11183.39,6786.73 -5241.88,-2194.01 -8733.66,-8789.72 -7799.12,-14731.94 934.54,-5942.21 5941.52,-8980.73 11183.39,-6786.73 5241.88,2194.01 8733.66,8789.72 7799.12,14731.94zm133.05 55.69c947.65,-6025.52 -2593.09,-12713.69 -7908.44,-14938.46 -5315.36,-2224.76 -10392.53,856.35 -11340.17,6881.87 -947.65,6025.52 2593.09,12713.69 7908.45,14938.46 5315.35,2224.76 10392.52,-856.36 11340.16,-6881.87z"/>
    <path id="_108" fill="#B91C61" d="M25089.94 12815.24c-943.27,5997.75 -5997.04,9064.67 -11287.91,6850.16 -5290.86,-2214.51 -8815.28,-8871.87 -7872,-14869.62 943.27,-5997.75 5997.04,-9064.66 11287.91,-6850.15 5290.86,2214.51 8815.28,8871.87 7872,14869.61zm133.06 55.7c956.37,-6081.06 -2616.99,-12830.87 -7981.34,-15076.14 -5364.35,-2245.27 -10488.31,864.24 -11444.69,6945.29 -956.37,6081.05 2616.99,12830.87 7981.34,15076.14 5364.35,2245.27 10488.31,-864.24 11444.69,-6945.29z"/>
    <path id="_109" fill="#B81C61" d="M25178.65 12852.37c-952.01,6053.29 -6052.58,9148.6 -11392.43,6913.58 -5339.85,-2235.01 -8896.9,-8954.01 -7944.89,-15007.29 952.01,-6053.29 6052.57,-9148.6 11392.42,-6913.59 5339.86,2235.02 8896.91,8954.02 7944.9,15007.3zm133.05 55.69c965.11,-6136.58 -2640.89,-12948.04 -8054.23,-15213.82 -5413.33,-2265.77 -10584.09,872.14 -11549.2,7008.73 -965.11,6136.58 2640.89,12948.04 8054.23,15213.82 5413.34,2265.77 10584.09,-872.14 11549.2,-7008.73z"/>
    <path id="_110" fill="#B71C62" d="M25267.35 12889.5c-960.74,6108.82 -6108.1,9232.53 -11496.95,6977.01 -5388.84,-2255.52 -8978.52,-9036.16 -8017.78,-15144.98 960.75,-6108.82 6108.1,-9232.53 11496.95,-6977.01 5388.84,2255.52 8978.52,9036.16 8017.78,15144.98zm133.05 55.69c973.85,-6192.12 -2664.78,-13065.22 -8127.11,-15351.5 -5462.33,-2286.28 -10679.88,880.03 -11653.72,7072.15 -973.85,6192.12 2664.79,13065.22 8127.11,15351.5 5462.33,2286.28 10679.88,-880.03 11653.72,-7072.15z"/>
    <path id="_111" fill="#B71B62" d="M25356.05 12926.63c-969.48,6164.35 -6163.63,9316.46 -11601.46,7040.43 -5437.83,-2276.02 -9060.15,-9118.3 -8090.67,-15282.66 969.48,-6164.35 6163.63,-9316.46 11601.46,-7040.43 5437.83,2276.02 9060.15,9118.3 8090.67,15282.66zm133.06 55.69c982.58,-6247.66 -2688.69,-13182.4 -8200.01,-15489.19 -5511.31,-2306.78 -10775.66,887.93 -11758.24,7135.58 -982.58,6247.66 2688.69,13182.4 8200.01,15489.19 5511.32,2306.78 10775.66,-887.93 11758.24,-7135.58z"/>
    <path id="_112" fill="#B61B63" d="M25444.76 12963.75c-978.22,6219.89 -6219.16,9400.4 -11705.98,7103.87 -5486.83,-2296.53 -9141.78,-9200.46 -8163.56,-15420.34 978.21,-6219.89 6219.15,-9400.4 11705.98,-7103.87 5486.82,2296.53 9141.77,9200.46 8163.56,15420.34zm133.05 55.69c991.31,-6303.19 -2712.59,-13299.57 -8272.89,-15626.86 -5560.31,-2327.29 -10871.45,895.81 -11862.76,7199 -991.31,6303.19 2712.59,13299.58 8272.89,15626.87 5560.31,2327.29 10871.45,-895.82 11862.76,-7199.01z"/>
    <path id="_113" fill="#B51B64" d="M25533.46 13000.88c-986.95,6275.42 -6274.69,9484.33 -11810.5,7167.29 -5535.81,-2317.03 -9223.39,-9282.6 -8236.45,-15558.02 986.95,-6275.42 6274.69,-9484.33 11810.5,-7167.29 5535.81,2317.03 9223.4,9282.6 8236.45,15558.02zm133.05 55.69c1000.05,-6358.72 -2736.48,-13416.75 -8345.78,-15764.55 -5609.29,-2347.79 -10967.23,903.71 -11967.27,7262.44 -1000.05,6358.72 2736.48,13416.75 8345.78,15764.54 5609.3,2347.8 10967.23,-903.7 11967.27,-7262.43z"/>
    <path id="_114" fill="#B41B64" d="M25622.16 13038.01c-995.68,6330.95 -6330.21,9568.26 -11915.01,7230.72 -5584.8,-2337.54 -9305.02,-9364.75 -8309.34,-15695.71 995.68,-6330.96 6330.21,-9568.26 11915.01,-7230.72 5584.81,2337.54 9305.02,9364.75 8309.34,15695.71zm133.06 55.69c1008.78,-6414.26 -2760.39,-13533.93 -8418.67,-15902.23 -5658.29,-2368.3 -11063.01,911.6 -12071.8,7325.86 -1008.78,6414.26 2760.39,13533.93 8418.68,15902.23 5658.28,2368.3 11063.01,-911.6 12071.79,-7325.86z"/>
    <path id="_115" fill="#B31A65" d="M25710.87 13075.13c-1004.42,6386.5 -6385.75,9652.2 -12019.54,7294.15 -5633.79,-2358.04 -9386.64,-9446.89 -8382.22,-15833.39 1004.41,-6386.49 6385.74,-9652.19 12019.53,-7294.14 5633.79,2358.04 9386.64,9446.89 8382.23,15833.38zm133.05 55.7c1017.52,-6469.8 -2784.29,-13651.11 -8491.56,-16039.91 -5707.27,-2388.81 -11158.79,919.49 -12176.31,7389.28 -1017.51,6469.8 2784.29,13651.11 8491.56,16039.91 5707.28,2388.81 11158.8,-919.49 12176.31,-7389.28z"/>
    <path id="_116" fill="#B31A65" d="M25799.57 13112.26c-1013.15,6442.03 -6441.27,9736.13 -12124.05,7357.58 -5682.78,-2378.56 -9468.27,-9529.05 -8455.12,-15971.07 1013.15,-6442.03 6441.27,-9736.13 12124.05,-7357.58 5682.78,2378.55 9468.27,9529.04 8455.12,15971.07zm133.05 55.69c1026.25,-6525.33 -2808.18,-13768.28 -8564.45,-16177.59 -5756.26,-2409.31 -11254.57,927.39 -12280.82,7452.72 -1026.25,6525.33 2808.18,13768.28 8564.45,16177.59 5756.26,2409.31 11254.57,-927.39 12280.82,-7452.72z"/>
    <path id="_117" fill="#B21A66" d="M25888.27 13149.39c-1021.88,6497.56 -6496.8,9820.06 -12228.57,7421 -5731.77,-2399.06 -9549.88,-9611.19 -8528,-16108.75 1021.88,-6497.56 6496.8,-9820.06 12228.57,-7421 5731.77,2399.05 9549.88,9611.19 8528,16108.75zm133.06 55.69c1034.98,-6580.86 -2832.09,-13885.46 -8637.34,-16315.27 -5805.25,-2429.82 -11350.36,935.28 -12385.35,7516.14 -1034.98,6580.86 2832.09,13885.46 8637.34,16315.27 5805.26,2429.81 11350.36,-935.28 12385.35,-7516.14z"/>
    <path id="_118" fill="#B11A67" d="M25976.98 13186.52c-1030.62,6553.09 -6552.33,9903.99 -12333.09,7484.42 -5780.76,-2419.56 -9631.51,-9693.33 -8600.89,-16246.43 1030.61,-6553.09 6552.32,-9903.99 12333.08,-7484.43 5780.76,2419.56 9631.51,9693.34 8600.9,16246.44zm133.05 55.69c1043.72,-6636.4 -2855.98,-14002.64 -8710.23,-16452.96 -5854.24,-2450.32 -11446.14,943.17 -12489.86,7579.57 -1043.72,6636.4 2855.98,14002.64 8710.23,16452.96 5854.24,2450.31 11446.14,-943.17 12489.86,-7579.57z"/>
    <path id="_119" fill="#B01967" d="M26065.68 13223.64c-1039.35,6608.63 -6607.86,9987.92 -12437.6,7547.86 -5829.75,-2440.07 -9713.14,-9775.48 -8673.79,-16384.11 1039.35,-6608.64 6607.86,-9987.93 12437.61,-7547.86 5829.74,2440.06 9713.13,9775.48 8673.78,16384.11zm133.05 55.69c1052.46,-6691.93 -2879.88,-14119.81 -8783.11,-16590.63 -5903.24,-2470.82 -11541.93,951.06 -12594.38,7642.99 -1052.45,6691.94 2879.88,14119.82 8783.11,16590.64 5903.24,2470.82 11541.93,-951.06 12594.38,-7643z"/>
    <path id="_120" fill="#AF1968" d="M26154.38 13260.77c-1048.08,6664.17 -6663.38,10071.85 -12542.12,7611.28 -5878.74,-2460.57 -9794.76,-9857.63 -8746.67,-16521.79 1048.08,-6664.17 6663.38,-10071.86 12542.12,-7611.29 5878.74,2460.57 9794.76,9857.63 8746.67,16521.8zm133.06 55.69c1061.18,-6747.47 -2903.79,-14236.99 -8856.01,-16728.32 -5952.22,-2491.32 -11637.71,958.96 -12698.9,7706.43 -1061.18,6747.47 2903.79,14236.99 8856.01,16728.32 5952.22,2491.32 11637.71,-958.96 12698.9,-7706.43z"/>
    <path id="_121" fill="#AF1968" d="M26243.09 13297.9c-1056.82,6719.7 -6718.92,10155.78 -12646.64,7674.71 -5927.73,-2481.08 -9876.38,-9939.78 -8819.56,-16659.48 1056.81,-6719.7 6718.91,-10155.78 12646.63,-7674.71 5927.73,2481.08 9876.38,9939.78 8819.57,16659.48zm133.05 55.69c1069.92,-6803 -2927.68,-14354.17 -8928.89,-16866 -6001.22,-2511.83 -11733.5,966.85 -12803.42,7769.85 -1069.92,6803 2927.68,14354.17 8928.89,16866 6001.22,2511.83 11733.5,-966.85 12803.42,-7769.85z"/>
    <path id="_122" fill="#AE1869" d="M26331.79 13335.02c-1065.55,6775.24 -6774.44,10239.72 -12751.16,7738.14 -5976.71,-2501.58 -9958,-10021.92 -8892.45,-16797.16 1065.56,-6775.23 6774.44,-10239.71 12751.16,-7738.13 5976.72,2501.58 9958,10021.92 8892.45,16797.15zm133.05 55.7c1078.66,-6858.54 -2951.58,-14471.35 -9001.78,-17003.69 -6050.2,-2532.33 -11829.28,974.75 -12907.93,7833.28 -1078.66,6858.54 2951.58,14471.35 9001.78,17003.68 6050.2,2532.34 11829.28,-974.74 12907.93,-7833.27z"/>
    <path id="_123" fill="#AD186A" d="M26420.49 13372.15c-1074.28,6830.77 -6829.97,10323.65 -12855.67,7801.57 -6025.71,-2522.09 -10039.63,-10104.07 -8965.34,-16934.84 1074.29,-6830.77 6829.97,-10323.65 12855.67,-7801.57 6025.71,2522.09 10039.63,10104.07 8965.34,16934.84zm133.06 55.69c1087.38,-6914.07 -2975.48,-14588.52 -9074.67,-17141.36 -6099.2,-2552.84 -11925.07,982.63 -13012.46,7896.71 -1087.38,6914.07 2975.49,14588.52 9074.68,17141.36 6099.19,2552.84 11925.06,-982.64 13012.45,-7896.71z"/>
    <path id="_124" fill="#AC186A" d="M26509.2 13409.28c-1083.03,6886.3 -6885.5,10407.58 -12960.2,7864.99 -6074.69,-2542.59 -10121.24,-10186.22 -9038.22,-17072.52 1083.02,-6886.3 6885.49,-10407.58 12960.19,-7864.99 6074.69,2542.59 10121.25,10186.21 9038.23,17072.52zm133.05 55.69c1096.12,-6969.61 -2999.38,-14705.7 -9147.56,-17279.04 -6148.18,-2573.35 -12020.85,990.52 -13116.97,7960.13 -1096.12,6969.61 2999.38,14705.7 9147.56,17279.04 6148.18,2573.35 12020.85,-990.52 13116.97,-7960.13z"/>
    <path id="_125" fill="#AB186B" d="M26597.9 13446.41c-1091.76,6941.84 -6941.03,10491.51 -13064.71,7928.42 -6123.69,-2563.1 -10202.87,-10268.37 -9111.12,-17210.21 1091.76,-6941.84 6941.03,-10491.51 13064.71,-7928.42 6123.69,2563.1 10202.87,10268.37 9111.12,17210.21zm133.05 55.69c1104.86,-7025.14 -3023.28,-14822.88 -9220.45,-17416.73 -6197.17,-2593.85 -12116.63,998.42 -13221.48,8023.56 -1104.86,7025.14 3023.28,14822.88 9220.45,17416.73 6197.17,2593.85 12116.63,-998.42 13221.48,-8023.56z"/>
    <path id="_126" fill="#AB176C" d="M26686.6 13483.53c-1100.49,6997.38 -6996.55,10575.45 -13169.23,7991.85 -6172.67,-2583.6 -10284.49,-10350.51 -9184,-17347.88 1100.49,-6997.38 6996.55,-10575.45 13169.23,-7991.85 6172.67,2583.6 10284.49,10350.51 9184,17347.88zm133.06 55.69c1113.59,-7080.67 -3047.18,-14940.05 -9293.34,-17554.4 -6246.16,-2614.36 -12212.42,1006.31 -13326.01,8086.98 -1113.59,7080.68 3047.18,14940.06 9293.34,17554.41 6246.16,2614.36 12212.42,-1006.31 13326.01,-8086.99z"/>
    <path id="_127" fill="#AA176C" d="M26775.31 13520.66c-1109.23,7052.91 -7052.09,10659.38 -13273.75,8055.28 -6221.66,-2604.11 -10366.12,-10432.66 -9256.89,-17485.57 1109.22,-7052.91 7052.08,-10659.38 13273.74,-8055.28 6221.67,2604.11 10366.12,10432.66 9256.9,17485.57zm133.05 55.69c1122.32,-7136.21 -3071.08,-15057.23 -9366.23,-17692.09 -6295.15,-2634.86 -12308.2,1014.21 -13430.52,8150.42 -1122.32,7136.21 3071.08,15057.23 9366.23,17692.09 6295.15,2634.86 12308.2,-1014.21 13430.52,-8150.42z"/>
    <path id="_128" fill="#A9176D" d="M26864.01 13557.79c-1117.96,7108.44 -7107.61,10743.31 -13378.26,8118.7 -6270.66,-2624.61 -10447.74,-10514.81 -9329.79,-17623.25 1117.96,-7108.44 7107.61,-10743.31 13378.27,-8118.7 6270.65,2624.61 10447.74,10514.8 9329.78,17623.25zm133.05 55.69c1131.06,-7191.75 -3094.98,-15174.41 -9439.11,-17829.77 -6344.14,-2655.37 -12403.98,1022.09 -13535.04,8213.84 -1131.06,7191.75 3094.98,15174.41 9439.11,17829.77 6344.14,2655.37 12403.99,-1022.1 13535.04,-8213.84z"/>
    <path id="_129" fill="#A8176D" d="M26952.71 13594.91c-1126.69,7163.98 -7163.14,10827.25 -13482.78,8182.13 -6319.64,-2645.11 -10529.36,-10596.95 -9402.67,-17760.93 1126.69,-7163.97 7163.14,-10827.24 13482.78,-8182.13 6319.64,2645.12 10529.36,10596.96 9402.67,17760.93zm133.06 55.7c1139.79,-7247.29 -3118.88,-15291.59 -9512.01,-17967.46 -6393.13,-2675.87 -12499.76,1029.99 -13639.56,8277.27 -1139.79,7247.28 3118.88,15291.59 9512.01,17967.46 6393.13,2675.87 12499.77,-1029.99 13639.56,-8277.27z"/>
    <path id="_130" fill="#A8166E" d="M27041.42 13632.04c-1135.43,7219.51 -7218.67,10911.18 -13587.3,8245.56 -6368.64,-2665.62 -10610.99,-10679.1 -9475.56,-17898.61 1135.42,-7219.52 7218.66,-10911.18 13587.29,-8245.56 6368.64,2665.62 10610.99,10679.1 9475.57,17898.61zm133.05 55.69c1148.53,-7302.81 -3142.78,-15408.76 -9584.89,-18105.13 -6442.12,-2696.38 -12595.55,1037.88 -13744.08,8340.7 -1148.52,7302.81 3142.78,15408.76 9584.9,18105.13 6442.11,2696.37 12595.54,-1037.88 13744.07,-8340.7z"/>
    <path id="_131" fill="#A7166F" d="M27130.12 13669.17c-1144.16,7275.05 -7274.2,10995.11 -13691.82,8308.98 -6417.62,-2686.12 -10692.61,-10761.24 -9548.45,-18036.29 1144.16,-7275.05 7274.2,-10995.11 13691.82,-8308.98 6417.62,2686.12 10692.61,10761.24 9548.45,18036.29zm133.05 55.69c1157.26,-7358.35 -3166.67,-15525.94 -9657.78,-18242.82 -6491.11,-2716.88 -12691.33,1045.78 -13848.59,8404.13 -1157.26,7358.35 3166.67,15525.94 9657.78,18242.81 6491.11,2716.88 12691.33,-1045.77 13848.59,-8404.12z"/>
    <path id="_132" fill="#A6166F" d="M27218.82 13706.3c-1152.89,7330.58 -7329.72,11079.03 -13796.33,8372.41 -6466.61,-2706.63 -10774.23,-10843.4 -9621.34,-18173.98 1152.89,-7330.58 7329.72,-11079.04 13796.33,-8372.41 6466.61,2706.63 10774.23,10843.39 9621.34,18173.98zm133.06 55.69c1165.99,-7413.89 -3190.58,-15643.12 -9730.68,-18380.5 -6540.09,-2737.38 -12787.11,1053.67 -13953.11,8467.55 -1165.99,7413.89 3190.58,15643.12 9730.68,18380.5 6540.09,2737.38 12787.11,-1053.67 13953.11,-8467.55z"/>
    <path id="_133" fill="#A51670" d="M27307.53 13743.42c-1161.63,7386.12 -7385.25,11162.97 -13900.86,8435.84 -6515.6,-2727.13 -10855.85,-10925.54 -9694.22,-18311.65 1161.62,-7386.12 7385.25,-11162.98 13900.85,-8435.84 6515.6,2727.13 10855.85,10925.54 9694.23,18311.65zm133.05 55.69c1174.73,-7469.42 -3214.48,-15760.29 -9803.56,-18518.18 -6589.09,-2757.88 -12882.9,1061.57 -14057.63,8530.98 -1174.73,7469.42 3214.48,15760.3 9803.56,18518.18 6589.09,2757.89 12882.9,-1061.56 14057.63,-8530.98z"/>
    <path id="_134" fill="#A41571" d="M27396.23 13780.55c-1170.36,7441.65 -7440.78,11246.9 -14005.37,8499.27 -6564.59,-2747.64 -10937.48,-11007.69 -9767.12,-18449.34 1170.36,-7441.65 7440.78,-11246.9 14005.37,-8499.27 6564.59,2747.64 10937.48,11007.69 9767.12,18449.34zm133.05 55.69c1183.47,-7524.95 -3238.37,-15877.47 -9876.45,-18655.86 -6638.07,-2778.39 -12978.68,1069.45 -14162.14,8594.41 -1183.46,7524.95 3238.37,15877.46 9876.45,18655.86 6638.07,2778.39 12978.68,-1069.46 14162.14,-8594.41z"/>
    <path id="_135" fill="#A41571" d="M27484.93 13817.68c-1179.09,7497.18 -7496.3,11330.83 -14109.88,8562.69 -6613.58,-2768.14 -11019.11,-11089.83 -9840.01,-18587.02 1179.09,-7497.19 7496.31,-11330.83 14109.89,-8562.69 6613.58,2768.14 11019.1,11089.83 9840,18587.02zm133.06 55.69c1192.19,-7580.49 -3262.28,-15994.65 -9949.34,-18793.54 -6687.07,-2798.9 -13074.47,1077.34 -14266.67,8657.83 -1192.19,7580.49 3262.28,15994.64 9949.34,18793.54 6687.07,2798.9 13074.47,-1077.34 14266.67,-8657.83z"/>
    <path id="_136" fill="#A31572" d="M27573.64 13854.8c-1187.83,7552.73 -7551.84,11414.77 -14214.41,8626.13 -6662.57,-2788.65 -11100.72,-11171.98 -9912.89,-18724.71 1187.83,-7552.72 7551.83,-11414.76 14214.4,-8626.12 6662.57,2788.65 11100.72,11171.98 9912.9,18724.7zm133.05 55.7c1200.93,-7636.03 -3286.17,-16111.83 -10022.23,-18931.23 -6736.05,-2819.4 -13170.25,1085.24 -14371.18,8721.26 -1200.93,7636.03 3286.18,16111.82 10022.23,18931.23 6736.05,2819.4 13170.25,-1085.24 14371.18,-8721.26z"/>
    <path id="_137" fill="#A21472" d="M27662.34 13891.93c-1196.56,7608.26 -7607.36,11498.7 -14318.92,8689.55 -6711.56,-2809.15 -11182.35,-11254.13 -9985.79,-18862.38 1196.57,-7608.26 7607.37,-11498.7 14318.92,-8689.55 6711.56,2809.15 11182.35,11254.13 9985.79,18862.38zm133.05 55.69c1209.67,-7691.56 -3310.07,-16229 -10095.11,-19068.9 -6785.05,-2839.91 -13266.04,1093.13 -14475.7,8784.69 -1209.67,7691.55 3310.07,16228.99 10095.11,19068.9 6785.05,2839.91 13266.04,-1093.13 14475.7,-8784.69z"/>
    <path id="_138" fill="#A11473" d="M27751.04 13929.06c-1205.3,7663.79 -7662.89,11582.63 -14423.44,8752.97 -6760.55,-2829.65 -11263.97,-11336.27 -10058.67,-19000.06 1205.3,-7663.79 7662.89,-11582.63 14423.44,-8752.98 6760.55,2829.66 11263.97,11336.28 10058.67,19000.07zm133.06 55.69c1218.39,-7747.09 -3333.98,-16346.18 -10168.01,-19206.59 -6834.03,-2860.41 -13361.82,1101.03 -14580.22,8848.12 -1218.39,7747.09 3333.98,16346.17 10168.01,19206.59 6834.03,2860.41 13361.82,-1101.03 14580.22,-8848.12z"/>
    <path id="_139" fill="#A01474" d="M27839.74 13966.19c-1214.03,7719.32 -7718.41,11666.56 -14527.95,8816.4 -6809.54,-2850.16 -11345.59,-11418.42 -10131.56,-19137.75 1214.03,-7719.32 7718.42,-11666.56 14527.95,-8816.4 6809.54,2850.16 11345.6,11418.42 10131.56,19137.75zm133.06 55.69c1227.13,-7802.63 -3357.87,-16463.36 -10240.89,-19344.27 -6883.03,-2880.92 -13457.61,1108.91 -14684.74,8911.54 -1227.13,7802.63 3357.87,16463.35 10240.9,19344.27 6883.02,2880.92 13457.6,-1108.92 14684.73,-8911.54z"/>
    <path id="_140" fill="#A01474" d="M27928.45 14003.31c-1222.77,7774.86 -7773.95,11750.5 -14632.48,8879.83 -6858.52,-2870.66 -11427.21,-11500.56 -10204.45,-19275.42 1222.77,-7774.86 7773.95,-11750.5 14632.48,-8879.84 6858.53,2870.67 11427.21,11500.57 10204.45,19275.43zm133.05 55.69c1235.87,-7858.16 -3381.77,-16580.52 -10313.78,-19481.95 -6932.01,-2901.42 -13553.39,1116.81 -14789.25,8974.97 -1235.87,7858.17 3381.77,16580.53 10313.78,19481.96 6932.01,2901.42 13553.39,-1116.81 14789.25,-8974.98z"/>
    <path id="_141" fill="#9F1375" d="M28017.15 14040.44c-1231.5,7830.39 -7829.47,11834.43 -14736.99,8943.26 -6907.52,-2891.17 -11508.84,-11582.72 -10277.34,-19413.11 1231.5,-7830.4 7829.48,-11834.43 14736.99,-8943.26 6907.52,2891.17 11508.84,11582.72 10277.34,19413.11zm133.06 55.69c1244.6,-7913.7 -3405.68,-16697.7 -10386.68,-19619.63 -6981,-2921.93 -13649.16,1124.7 -14893.77,9038.4 -1244.6,7913.69 3405.68,16697.7 10386.68,19619.63 6981,2921.93 13649.17,-1124.7 14893.77,-9038.4z"/>
    <path id="_142" fill="#9E1375" d="M28105.85 14077.57c-1240.23,7885.93 -7885,11918.36 -14841.51,9006.68 -6956.5,-2911.67 -11590.46,-11664.86 -10350.22,-19550.79 1240.23,-7885.93 7885,-11918.36 14841.51,-9006.68 6956.5,2911.67 11590.46,11664.86 10350.22,19550.79zm133.06 55.69c1253.33,-7969.23 -3429.57,-16814.88 -10459.56,-19757.32 -7029.99,-2942.43 -13744.95,1132.6 -14998.29,9101.83 -1253.33,7969.23 3429.57,16814.88 10459.56,19757.31 7029.99,2942.44 13744.96,-1132.59 14998.29,-9101.82z"/>
    <path id="_143" fill="#9D1376" d="M28194.56 14114.69c-1248.97,7941.47 -7940.53,12002.3 -14946.03,9070.12 -7005.5,-2932.18 -11672.08,-11747.01 -10423.12,-19688.48 1248.97,-7941.46 7940.53,-12002.29 14946.03,-9070.11 7005.5,2932.18 11672.09,11747.01 10423.12,19688.47zm133.05 55.7c1262.07,-8024.77 -3453.47,-16932.06 -10532.45,-19895 -7078.98,-2962.94 -13840.73,1140.49 -15102.8,9165.25 -1262.07,8024.77 3453.47,16932.06 10532.45,19895 7078.98,2962.94 13840.73,-1140.49 15102.8,-9165.25z"/>
    <path id="_144" fill="#9C1377" d="M28283.26 14151.82c-1257.7,7997 -7996.06,12086.23 -15050.54,9133.54 -7054.49,-2952.68 -11753.71,-11829.15 -10496.01,-19826.15 1257.7,-7997 7996.06,-12086.23 15050.55,-9133.54 7054.48,2952.68 11753.7,11829.15 10496,19826.15zm133.06 55.69c1270.8,-8080.3 -3477.37,-17049.23 -10605.34,-20032.67 -7127.97,-2983.45 -13936.52,1148.38 -15207.33,9228.68 -1270.8,8080.3 3477.37,17049.23 10605.34,20032.67 7127.97,2983.44 13936.52,-1148.38 15207.33,-9228.68z"/>
    <path id="_145" fill="#9C1277" d="M28371.96 14188.95c-1266.43,8052.53 -8051.58,12170.15 -15155.06,9196.97 -7103.47,-2973.19 -11835.33,-11911.31 -10568.89,-19963.84 1266.43,-8052.53 8051.58,-12170.16 15155.06,-9196.97 7103.47,2973.19 11835.33,11911.31 10568.89,19963.84zm133.06 55.69c1279.54,-8135.84 -3501.27,-17166.41 -10678.23,-20170.36 -7176.96,-3003.95 -14032.3,1156.27 -15311.84,9292.11 -1279.53,8135.83 3501.27,17166.41 10678.23,20170.36 7176.96,3003.94 14032.3,-1156.28 15311.84,-9292.11z"/>
    <path id="_146" fill="#9B1278" d="M28460.67 14226.08c-1275.17,8108.06 -8107.12,12254.08 -15259.58,9260.39 -7152.47,-2993.69 -11916.96,-11993.45 -10641.79,-20101.52 1275.17,-8108.07 8107.12,-12254.09 15259.58,-9260.39 7152.47,2993.69 11916.96,11993.45 10641.79,20101.52zm133.05 55.69c1288.27,-8191.37 -3525.17,-17283.59 -10751.11,-20308.04 -7225.95,-3024.45 -14128.09,1164.16 -15416.36,9355.53 -1288.27,8191.37 3525.17,17283.59 10751.12,20308.04 7225.94,3024.45 14128.08,-1164.16 15416.35,-9355.53z"/>
    <path id="_147" fill="#9A1278" d="M28549.37 14263.2c-1283.9,8163.61 -8162.64,12338.02 -15364.1,9323.83 -7201.45,-3014.2 -11998.57,-12075.6 -10714.67,-20239.2 1283.9,-8163.61 8162.64,-12338.02 15364.1,-9323.83 7201.45,3014.2 11998.57,12075.6 10714.67,20239.2zm133.06 55.69c1297,-8246.9 -3549.07,-17400.76 -10824.01,-20445.72 -7274.94,-3044.95 -14223.87,1172.06 -15520.88,9418.96 -1297,8246.91 3549.07,17400.77 10824.01,20445.73 7274.94,3044.95 14223.87,-1172.06 15520.88,-9418.97z"/>
    <path id="_148" fill="#991279" d="M28638.07 14300.33c-1292.63,8219.14 -8218.17,12421.95 -15468.61,9387.25 -7250.44,-3034.7 -12080.2,-12157.74 -10787.56,-20376.88 1292.63,-8219.14 8218.17,-12421.95 15468.61,-9387.25 7250.45,3034.7 12080.2,12157.74 10787.56,20376.88zm133.06 55.69c1305.74,-8302.44 -3572.97,-17517.94 -10896.9,-20583.4 -7323.92,-3065.46 -14319.65,1179.95 -15625.39,9482.39 -1305.74,8302.44 3572.97,17517.94 10896.9,20583.4 7323.92,3065.46 14319.65,-1179.95 15625.39,-9482.39z"/>
    <path id="_149" fill="#99117A" d="M28726.78 14337.46c-1301.37,8274.67 -8273.7,12505.88 -15573.14,9450.67 -7299.43,-3055.2 -12161.82,-12239.89 -10860.45,-20514.56 1301.37,-8274.67 8273.7,-12505.88 15573.14,-9450.68 7299.43,3055.21 12161.82,12239.89 10860.45,20514.57zm133.05 55.69c1314.48,-8357.98 -3596.86,-17635.12 -10969.78,-20721.09 -7372.92,-3085.96 -14415.44,1187.85 -15729.91,9545.82 -1314.47,8357.98 3596.87,17635.12 10969.78,20721.09 7372.92,3085.96 14415.44,-1187.85 15729.91,-9545.82z"/>
    <path id="_150" fill="#98117A" d="M28815.48 14374.58c-1310.1,8330.21 -8329.23,12589.82 -15677.65,9514.11 -7348.42,-3075.71 -12243.45,-12322.04 -10933.34,-20652.25 1310.11,-8330.2 8329.23,-12589.81 15677.65,-9514.1 7348.42,3075.71 12243.45,12322.04 10933.34,20652.24zm133.06 55.69c1323.2,-8413.5 -3620.77,-17752.29 -11042.68,-20858.76 -7421.9,-3106.47 -14511.22,1195.73 -15834.42,9609.24 -1323.21,8413.51 3620.76,17752.3 11042.67,20858.77 7421.9,3106.47 14511.22,-1195.74 15834.43,-9609.25z"/>
    <path id="_151" fill="#97117B" d="M28904.18 14411.71c-1318.84,8385.74 -8384.75,12673.75 -15782.16,9577.53 -7397.42,-3096.21 -12325.07,-12404.18 -11006.23,-20789.92 1318.84,-8385.74 8384.75,-12673.75 15782.17,-9577.53 7397.41,3096.21 12325.06,12404.18 11006.22,20789.92zm133.06 55.69c1331.94,-8469.04 -3644.67,-17869.47 -11115.56,-20996.45 -7470.9,-3126.97 -14607.01,1203.63 -15938.95,9672.68 -1331.94,8469.04 3644.67,17869.47 11115.56,20996.44 7470.9,3126.98 14607.01,-1203.62 15938.95,-9672.67z"/>
    <path id="_152" fill="#96107B" d="M28992.89 14448.84c-1327.58,8441.28 -8440.29,12757.68 -15886.69,9640.96 -7446.4,-3116.72 -12406.69,-12486.33 -11079.12,-20927.61 1327.58,-8441.28 8440.29,-12757.68 15886.69,-9640.96 7446.4,3116.72 12406.69,12486.33 11079.12,20927.61zm133.05 55.69c1340.68,-8524.58 -3668.56,-17986.65 -11188.45,-21134.13 -7519.88,-3147.48 -14702.79,1211.52 -16043.46,9736.1 -1340.68,8524.58 3668.56,17986.65 11188.45,21134.13 7519.88,3147.48 14702.79,-1211.52 16043.46,-9736.1z"/>
    <path id="_153" fill="#96107C" d="M29081.59 14485.97c-1336.31,8496.81 -8495.81,12841.61 -15991.2,9704.38 -7495.39,-3137.22 -12488.32,-12568.48 -11152.01,-21065.29 1336.31,-8496.81 8495.81,-12841.61 15991.2,-9704.38 7495.4,3137.22 12488.32,12568.47 11152.01,21065.29zm133.06 55.69c1349.4,-8580.12 -3692.47,-18103.83 -11261.34,-21271.82 -7568.88,-3167.98 -14798.58,1219.42 -16147.98,9799.53 -1349.41,8580.12 3692.46,18103.83 11261.34,21271.81 7568.87,3167.99 14798.57,-1219.41 16147.98,-9799.52z"/>
    <path id="_154" fill="#95107D" d="M29170.29 14523.09c-1345.04,8552.35 -8551.34,12925.55 -16095.72,9767.82 -7544.38,-3157.73 -12569.93,-12650.63 -11224.89,-21202.97 1345.04,-8552.35 8551.34,-12925.55 16095.72,-9767.82 7544.38,3157.73 12569.94,12650.63 11224.89,21202.97zm133.06 55.69c1358.14,-8635.64 -3716.36,-18221 -11334.23,-21409.49 -7617.86,-3188.49 -14894.36,1227.31 -16252.5,9862.96 -1358.14,8635.64 3716.37,18221 11334.23,21409.49 7617.87,3188.49 14894.36,-1227.31 16252.5,-9862.96z"/>
    <path id="_155" fill="#94107D" d="M29259 14560.22c-1353.78,8607.88 -8606.87,13009.48 -16200.24,9831.24 -7593.37,-3178.24 -12651.56,-12732.77 -11297.79,-21340.65 1353.78,-8607.88 8606.87,-13009.48 16200.24,-9831.24 7593.37,3178.23 12651.56,12732.77 11297.79,21340.65zm133.05 55.69c1366.88,-8691.18 -3740.26,-18338.18 -11407.12,-21547.17 -7666.85,-3209 -14990.13,1235.2 -16357.01,9926.38 -1366.88,8691.18 3740.26,18338.18 11407.12,21547.17 7666.85,3209 14990.14,-1235.2 16357.01,-9926.38z"/>
    <path id="_156" fill="#930F7E" d="M29347.7 14597.35c-1362.51,8663.41 -8662.4,13093.41 -16304.76,9894.67 -7642.36,-3198.75 -12733.18,-12814.92 -11370.67,-21478.34 1362.51,-8663.41 8662.4,-13093.41 16304.76,-9894.67 7642.36,3198.74 12733.18,12814.92 11370.67,21478.34zm133.06 55.69c1375.61,-8746.72 -3764.17,-18455.36 -11480.01,-21684.86 -7715.84,-3229.5 -15085.92,1243.09 -16461.53,9989.81 -1375.62,8746.72 3764.16,18455.36 11480,21684.86 7715.85,3229.5 15085.93,-1243.09 16461.54,-9989.81z"/>
    <path id="_157" fill="#920F7E" d="M29436.4 14634.47c-1371.24,8718.95 -8717.92,13177.35 -16409.27,9958.1 -7691.35,-3219.25 -12814.81,-12897.07 -11443.56,-21616.02 1371.24,-8718.95 8717.92,-13177.34 16409.27,-9958.09 7691.35,3219.24 12814.81,12897.06 11443.56,21616.01zm133.06 55.69c1384.34,-8802.25 -3788.06,-18572.53 -11552.9,-21822.53 -7764.83,-3250.01 -15181.7,1250.98 -16566.05,10053.23 -1384.34,8802.26 3788.06,18572.54 11552.9,21822.54 7764.83,3250 15181.7,-1250.98 16566.05,-10053.24z"/>
    <path id="_158" fill="#920F7F" d="M29525.11 14671.6c-1379.98,8774.49 -8773.46,13261.27 -16513.8,10021.52 -7740.33,-3239.75 -12896.42,-12979.21 -11516.45,-21753.69 1379.98,-8774.49 8773.46,-13261.28 16513.8,-10021.53 7740.33,3239.75 12896.43,12979.22 11516.45,21753.7zm133.05 55.69c1393.08,-8857.78 -3811.96,-18689.71 -11625.78,-21960.22 -7813.82,-3270.51 -15277.49,1258.88 -16670.57,10116.67 -1393.08,8857.78 3811.96,18689.71 11625.78,21960.22 7813.83,3270.5 15277.49,-1258.88 16670.57,-10116.67z"/>
    <path id="_159" fill="#910F80" d="M29613.81 14708.73c-1388.71,8830.02 -8828.98,13345.2 -16618.31,10084.95 -7789.33,-3260.26 -12978.05,-13061.36 -11589.34,-21891.38 1388.71,-8830.02 8828.98,-13345.21 16618.31,-10084.95 7789.33,3260.25 12978.05,13061.36 11589.34,21891.38zm133.06 55.69c1401.81,-8913.32 -3835.87,-18806.89 -11698.68,-22097.9 -7862.81,-3291.01 -15373.27,1266.77 -16775.08,10180.09 -1401.82,8913.32 3835.86,18806.89 11698.67,22097.9 7862.81,3291.01 15373.27,-1266.77 16775.09,-10180.09z"/>
    <path id="_160" fill="#900E80" d="M29702.51 14745.86c-1397.44,8885.55 -8884.51,13429.13 -16722.82,10148.37 -7838.32,-3280.76 -13059.68,-13143.5 -11662.23,-22029.06 1397.44,-8885.55 8884.51,-13429.13 16722.83,-10148.38 7838.31,3280.76 13059.67,13143.51 11662.22,22029.07zm133.06 55.69c1410.55,-8968.86 -3859.76,-18924.07 -11771.56,-22235.59 -7911.8,-3311.51 -15469.06,1274.67 -16879.61,10243.52 -1410.54,8968.86 3859.76,18924.07 11771.56,22235.59 7911.81,3311.51 15469.06,-1274.67 16879.61,-10243.52z"/>
    <path id="_161" fill="#900E81" d="M29791.22 14782.98c-1406.18,8941.09 -8940.04,13513.07 -16827.35,10211.81 -7887.31,-3301.27 -13141.3,-13225.66 -11735.12,-22166.74 1406.18,-8941.09 8940.04,-13513.07 16827.35,-10211.81 7887.31,3301.27 13141.3,13225.65 11735.12,22166.74zm133.05 55.69c1419.28,-9024.39 -3883.66,-19041.24 -11844.45,-22373.26 -7960.79,-3332.02 -15564.84,1282.55 -16984.12,10306.95 -1419.28,9024.39 3883.66,19041.24 11844.45,22373.26 7960.79,3332.02 15564.84,-1282.56 16984.12,-10306.95z"/>
    <path id="_162" fill="#8F0E81" d="M29879.92 14820.11c-1414.91,8996.62 -8995.57,13597 -16931.86,10275.23 -7936.3,-3321.77 -13222.92,-13307.8 -11808.01,-22304.42 1414.91,-8996.63 8995.57,-13597 16931.86,-10275.23 7936.3,3321.77 13222.92,13307.8 11808.01,22304.42zm133.06 55.69c1428.01,-9079.93 -3907.56,-19158.42 -11917.34,-22510.95 -8009.78,-3352.52 -15660.63,1290.45 -17088.64,10370.38 -1428.02,9079.92 3907.56,19158.42 11917.34,22510.94 8009.78,3352.53 15660.62,-1290.44 17088.64,-10370.37z"/>
    <path id="_163" fill="#8E0E82" d="M29968.62 14857.24c-1423.64,9052.16 -9051.09,13680.93 -17036.38,10338.66 -7985.28,-3342.28 -13304.54,-13389.95 -11880.89,-22442.11 1423.65,-9052.16 9051.09,-13680.93 17036.38,-10338.66 7985.28,3342.28 13304.54,13389.95 11880.89,22442.11zm133.06 55.69c1436.75,-9135.46 -3931.46,-19275.6 -11990.23,-22648.63 -8058.77,-3373.03 -15756.41,1298.34 -17193.16,10433.8 -1436.75,9135.46 3931.46,19275.6 11990.23,22648.63 8058.77,3373.03 15756.41,-1298.34 17193.16,-10433.8z"/>
    <path id="_164" fill="#8D0D82" d="M30057.33 14894.36c-1432.38,9107.7 -9106.63,13764.87 -17140.9,10402.09 -8034.28,-3362.78 -13386.17,-13472.09 -11953.79,-22579.79 1432.39,-9107.69 9106.63,-13764.86 17140.9,-10402.08 8034.28,3362.78 13386.17,13472.09 11953.79,22579.78zm133.05 55.69c1445.49,-9190.99 -3955.36,-19392.77 -12063.12,-22786.3 -8107.75,-3393.54 -15852.19,1306.23 -17297.67,10497.22 -1445.48,9191 3955.36,19392.78 12063.12,22786.31 8107.76,3393.54 15852.19,-1306.23 17297.67,-10497.23z"/>
    <path id="_165" fill="#8D0D83" d="M30146.03 14931.49c-1441.12,9163.23 -9162.15,13848.8 -17245.42,10465.52 -8083.26,-3383.29 -13467.79,-13554.24 -12026.67,-22717.47 1441.12,-9163.23 9162.15,-13848.8 17245.42,-10465.52 8083.26,3383.29 13467.79,13554.24 12026.67,22717.47zm133.06 55.69c1454.21,-9246.53 -3979.26,-19509.95 -12136.01,-22923.99 -8156.75,-3414.04 -15947.98,1314.13 -17402.19,10560.66 -1454.22,9246.53 3979.25,19509.95 12136,22923.99 8156.75,3414.04 15947.98,-1314.13 17402.2,-10560.66z"/>
    <path id="_166" fill="#8C0D84" d="M30234.73 14968.62c-1449.85,9218.76 -9217.68,13932.73 -17349.93,10528.94 -8132.25,-3403.79 -13549.41,-13636.39 -12099.56,-22855.15 1449.85,-9218.76 9217.68,-13932.73 17349.93,-10528.94 8132.26,3403.79 13549.41,13636.39 12099.56,22855.15zm133.06 55.69c1462.95,-9302.07 -4003.16,-19627.13 -12208.9,-23061.67 -8205.74,-3434.55 -16043.76,1322.01 -17506.71,10624.08 -1462.95,9302.06 4003.16,19627.13 12208.9,23061.67 8205.74,3434.55 16043.76,-1322.02 17506.71,-10624.08z"/>
    <path id="_167" fill="#8B0D84" d="M30323.44 15005.75c-1458.59,9274.29 -9273.21,14016.66 -17454.45,10592.37 -8181.25,-3424.3 -13631.04,-13718.54 -12172.46,-22992.84 1458.59,-9274.29 9273.21,-14016.66 17454.46,-10592.37 8181.24,3424.3 13631.03,13718.54 12172.45,22992.84zm133.05 55.69c1471.69,-9357.6 -4027.05,-19744.31 -12281.78,-23199.36 -8254.73,-3455.05 -16139.55,1329.91 -17611.23,10687.51 -1471.69,9357.6 4027.06,19744.31 12281.78,23199.36 8254.73,3455.05 16139.55,-1329.91 17611.23,-10687.51z"/>
    <path id="_168" fill="#8A0C85" d="M30412.14 15042.87c-1467.32,9329.83 -9328.74,14100.6 -17558.97,10655.8 -8230.23,-3444.8 -13712.66,-13800.68 -12245.34,-23130.51 1467.32,-9329.84 9328.74,-14100.6 17558.97,-10655.8 8230.23,3444.8 13712.66,13800.68 12245.34,23130.51zm133.06 55.69c1480.41,-9413.13 -4050.96,-19861.48 -12354.68,-23337.03 -8303.72,-3475.56 -16235.33,1337.8 -17715.74,10750.94 -1480.42,9413.13 4050.95,19861.48 12354.67,23337.03 8303.72,3475.56 16235.33,-1337.8 17715.75,-10750.94z"/>
    <path id="_169" fill="#8A0C85" d="M30500.84 15080c-1476.05,9385.37 -9384.26,14184.53 -17663.48,10719.22 -8279.23,-3465.3 -13794.29,-13882.82 -12318.23,-23268.19 1476.05,-9385.37 9384.26,-14184.53 17663.48,-10719.23 8279.23,3465.31 13794.29,13882.83 12318.23,23268.2zm133.06 55.69c1489.15,-9468.67 -4074.86,-19978.66 -12427.56,-23474.72 -8352.71,-3496.06 -16331.11,1345.7 -17820.27,10814.37 -1489.15,9468.67 4074.86,19978.66 12427.57,23474.72 8352.7,3496.06 16331.11,-1345.7 17820.26,-10814.37z"/>
    <path id="_170" fill="#890C86" d="M30589.55 15117.13c-1484.79,9440.9 -9439.8,14268.46 -17768.01,10782.65 -8328.21,-3485.81 -13875.9,-13964.98 -12391.12,-23405.88 1484.79,-9440.9 9439.8,-14268.46 17768.01,-10782.65 8328.21,3485.81 13875.9,13964.98 12391.12,23405.88zm133.05 55.69c1497.89,-9524.21 -4098.75,-20095.84 -12500.45,-23612.4 -8401.7,-3516.57 -16426.89,1353.59 -17924.78,10877.79 -1497.89,9524.2 4098.75,20095.84 12500.45,23612.4 8401.7,3516.56 16426.89,-1353.59 17924.78,-10877.79z"/>
    <path id="_171" fill="#880C86" d="M30678.25 15154.25c-1493.52,9496.44 -9495.32,14352.4 -17872.52,10846.08 -8377.2,-3506.31 -13957.53,-14047.12 -12464.01,-23543.56 1493.52,-9496.43 9495.32,-14352.39 17872.52,-10846.07 8377.2,3506.31 13957.53,14047.12 12464.01,23543.55zm133.06 55.69c1506.62,-9579.73 -4122.66,-20213.01 -12573.35,-23750.08 -8450.68,-3537.07 -16522.67,1361.49 -18029.29,10941.22 -1506.63,9579.74 4122.65,20213.02 12573.34,23750.08 8450.68,3537.07 16522.67,-1361.48 18029.3,-10941.22z"/>
    <path id="_172" fill="#880B87" d="M30766.95 15191.38c-1502.25,9551.97 -9550.85,14436.32 -17977.04,10909.51 -8426.19,-3526.82 -14039.15,-14129.27 -12536.89,-23681.24 1502.25,-9551.97 9550.85,-14436.33 17977.04,-10909.51 8426.19,3526.82 14039.15,14129.27 12536.89,23681.24zm133.06 55.69c1515.35,-9635.27 -4146.56,-20330.19 -12646.23,-23887.76 -8499.68,-3557.57 -16618.46,1369.37 -18133.82,11004.65 -1515.35,9635.27 4146.56,20330.19 12646.23,23887.76 8499.68,3557.57 16618.46,-1369.38 18133.82,-11004.65z"/>
    <path id="_173" fill="#870B87" d="M30855.66 15228.51c-1510.99,9607.5 -9606.38,14520.25 -18081.56,10972.93 -8475.18,-3547.32 -14120.77,-14211.41 -12609.79,-23818.92 1510.99,-9607.51 9606.38,-14520.26 18081.56,-10972.93 8475.18,3547.32 14120.78,14211.41 12609.79,23818.92zm133.05 55.69c1524.09,-9690.81 -4170.45,-20447.37 -12719.12,-24025.45 -8548.66,-3578.07 -16714.24,1377.27 -18238.33,11068.08 -1524.09,9690.81 4170.45,20447.36 12719.12,24025.44 8548.66,3578.08 16714.24,-1377.26 18238.33,-11068.07z"/>
    <path id="_174" fill="#860B88" d="M30944.36 15265.64c-1519.72,9663.04 -9661.91,14604.18 -18186.08,11036.36 -8524.17,-3567.83 -14202.39,-14293.57 -12682.67,-23956.61 1519.72,-9663.04 9661.91,-14604.18 18186.08,-11036.36 8524.17,3567.83 14202.39,14293.57 12682.67,23956.61zm133.06 55.69c1532.82,-9746.35 -4194.36,-20564.55 -12792.01,-24163.13 -8597.66,-3598.58 -16810.03,1385.16 -18342.85,11131.5 -1532.83,9746.34 4194.35,20564.54 12792,24163.13 8597.66,3598.58 16810.03,-1385.16 18342.86,-11131.5z"/>
    <path id="_175" fill="#860B88" d="M31033.06 15302.76c-1528.45,9718.58 -9717.43,14688.12 -18290.59,11099.79 -8573.16,-3588.33 -14284.02,-14375.71 -12755.56,-24094.28 1528.45,-9718.58 9717.43,-14688.12 18290.59,-11099.79 8573.16,3588.33 14284.02,14375.71 12755.56,24094.28zm133.06 55.69c1541.56,-9801.87 -4218.25,-20681.72 -12864.9,-24300.8 -8646.64,-3619.09 -16905.81,1393.05 -18447.37,11194.93 -1541.56,9801.87 4218.26,20681.71 12864.9,24300.8 8646.64,3619.09 16905.81,-1393.05 18447.37,-11194.93z"/>
    <path id="_176" fill="#850B89" d="M31121.77 15339.89c-1537.19,9774.11 -9772.97,14772.05 -18395.11,11163.22 -8622.15,-3608.84 -14365.65,-14457.86 -12828.46,-24231.97 1537.19,-9774.11 9772.97,-14772.05 18395.12,-11163.22 8622.14,3608.84 14365.64,14457.86 12828.45,24231.97zm133.05 55.69c1550.29,-9857.41 -4242.15,-20798.9 -12937.78,-24438.49 -8695.64,-3639.59 -17001.6,1400.95 -18551.89,11258.36 -1550.29,9857.41 4242.15,20798.89 12937.78,24438.49 8695.64,3639.59 17001.6,-1400.95 18551.89,-11258.36z"/>
    <path id="_177" fill="#840A8A" d="M31210.47 15377.02c-1545.92,9829.64 -9828.49,14855.98 -18499.63,11226.64 -8671.14,-3629.34 -14447.26,-14540 -12901.34,-24369.65 1545.93,-9829.64 9828.49,-14855.98 18499.63,-11226.64 8671.14,3629.34 14447.27,14540 12901.34,24369.65zm133.06 55.69c1559.02,-9912.95 -4266.06,-20916.08 -13010.68,-24576.17 -8744.62,-3660.1 -17097.38,1408.83 -18656.4,11321.78 -1559.03,9912.95 4266.05,20916.07 13010.67,24576.17 8744.62,3660.1 17097.38,-1408.84 18656.41,-11321.78z"/>
    <path id="_178" fill="#830A8A" d="M31299.17 15414.14c-1554.65,9885.18 -9884.01,14939.92 -18604.14,11290.07 -8720.13,-3649.84 -14528.89,-14622.15 -12974.23,-24507.33 1554.66,-9885.17 9884.02,-14939.91 18604.14,-11290.07 8720.13,3649.85 14528.89,14622.15 12974.23,24507.33zm133.06 55.69c1567.76,-9968.48 -4289.95,-21033.25 -13083.56,-24713.85 -8793.62,-3680.6 -17193.17,1416.73 -18760.93,11385.21 -1567.76,9968.49 4289.95,21033.25 13083.57,24713.86 8793.61,3680.6 17193.16,-1416.73 18760.92,-11385.22z"/>
    <path id="_179" fill="#830A8B" d="M31387.88 15451.27c-1563.4,9940.72 -9939.55,15023.85 -18708.67,11353.5 -8769.11,-3670.35 -14610.51,-14704.3 -13047.12,-24645.01 1563.4,-9940.72 9939.55,-15023.85 18708.67,-11353.5 8769.12,3670.35 14610.51,14704.3 13047.12,24645.01zm133.05 55.69c1576.5,-10024.01 -4313.85,-21150.42 -13156.45,-24851.53 -8842.6,-3701.11 -17288.95,1424.62 -18865.44,11448.64 -1576.49,10024.01 4313.85,21150.42 13156.45,24851.53 8842.6,3701.11 17288.95,-1424.62 18865.44,-11448.64z"/>
    <path id="_180" fill="#820A8B" d="M31476.58 15488.4c-1572.13,9996.25 -9995.07,15107.78 -18813.18,11416.92 -8818.11,-3690.85 -14692.14,-14786.44 -13120.01,-24782.69 1572.13,-9996.25 9995.08,-15107.78 18813.18,-11416.92 8818.11,3690.85 14692.14,14786.44 13120.01,24782.69zm133.06 55.69c1585.22,-10079.55 -4337.75,-21267.6 -13229.35,-24989.22 -8891.59,-3721.61 -17384.73,1432.52 -18969.95,11512.07 -1585.23,10079.55 4337.75,21267.6 13229.34,24989.22 8891.59,3721.61 17384.73,-1432.52 18969.96,-11512.07z"/>
    <path id="_181" fill="#82098C" d="M31565.28 15525.53c-1580.86,10051.78 -10050.6,15191.71 -18917.7,11480.35 -8867.09,-3711.36 -14773.75,-14868.59 -13192.89,-24920.38 1580.86,-10051.78 10050.6,-15191.71 18917.7,-11480.35 8867.09,3711.36 14773.75,14868.59 13192.89,24920.38zm133.06 55.69c1593.96,-10135.09 -4361.65,-21384.78 -13302.23,-25126.9 -8940.58,-3742.12 -17480.52,1440.41 -19074.48,11575.49 -1593.96,10135.09 4361.65,21384.78 13302.23,25126.9 8940.58,3742.12 17480.52,-1440.41 19074.48,-11575.49z"/>
    <path id="_182" fill="#81098C" d="M31653.99 15562.65c-1589.6,10107.32 -10106.13,15275.65 -19022.22,11543.78 -8916.09,-3731.86 -14855.38,-14950.74 -13265.79,-25058.05 1589.6,-10107.32 10106.14,-15275.65 19022.22,-11543.78 8916.09,3731.86 14855.38,14950.73 13265.79,25058.05zm133.05 55.69c1602.7,-10190.62 -4385.55,-21501.95 -13375.12,-25264.58 -8989.57,-3762.62 -17576.29,1448.31 -19178.99,11638.93 -1602.7,10190.62 4385.55,21501.95 13375.12,25264.57 8989.57,3762.63 17576.3,-1448.3 19178.99,-11638.92z"/>
    <path id="_183" fill="#80098D" d="M31742.69 15599.78c-1598.33,10162.85 -10161.66,15359.58 -19126.73,11607.21 -8965.08,-3752.37 -14937.01,-15032.89 -13338.68,-25195.74 1598.33,-10162.85 10161.66,-15359.58 19126.74,-11607.21 8965.07,3752.37 14937,15032.89 13338.67,25195.74zm133.06 55.69c1611.43,-10246.15 -4409.45,-21619.13 -13448.01,-25402.26 -9038.56,-3783.13 -17672.08,1456.19 -19283.51,11702.35 -1611.43,10246.15 4409.44,21619.13 13448,25402.26 9038.56,3783.12 17672.09,-1456.19 19283.52,-11702.35z"/>
    <path id="_184" fill="#80098D" d="M31831.39 15636.91c-1607.06,10218.38 -10217.18,15443.51 -19231.25,11670.63 -9014.06,-3772.87 -15018.63,-15115.03 -13411.56,-25333.42 1607.06,-10218.39 10217.19,-15443.51 19231.25,-11670.63 9014.06,3772.87 15018.63,15115.03 13411.56,25333.42zm133.06 55.69c1620.16,-10301.69 -4433.35,-21736.31 -13520.9,-25539.94 -9087.55,-3803.64 -17767.86,1464.08 -19388.03,11765.77 -1620.16,10301.69 4433.35,21736.31 13520.9,25539.94 9087.55,3803.63 17767.86,-1464.08 19388.03,-11765.77z"/>
    <path id="_185" fill="#7F088E" d="M31920.1 15674.03c-1615.8,10273.93 -10272.72,15527.44 -19335.77,11734.07 -9063.06,-3793.38 -15100.25,-15197.18 -13484.46,-25471.11 1615.8,-10273.92 10272.72,-15527.44 19335.77,-11734.06 9063.06,3793.38 15100.25,15197.18 13484.46,25471.1zm133.05 55.69c1628.9,-10357.22 -4457.25,-21853.48 -13593.78,-25677.62 -9136.54,-3824.13 -17863.65,1471.98 -19492.55,11829.2 -1628.9,10357.23 4457.25,21853.49 13593.79,25677.63 9136.53,3824.13 17863.64,-1471.98 19492.54,-11829.21z"/>
    <path id="_186" fill="#7E088E" d="M32008.8 15711.16c-1624.53,10329.46 -10328.24,15611.37 -19440.29,11797.49 -9112.04,-3813.88 -15181.87,-15279.33 -13557.34,-25608.78 1624.53,-10329.46 10328.25,-15611.38 19440.29,-11797.49 9112.04,3813.88 15181.87,15279.32 13557.34,25608.78zm133.06 55.69c1637.63,-10412.76 -4481.15,-21970.66 -13666.68,-25815.3 -9185.53,-3844.64 -17959.43,1479.87 -19597.06,11892.63 -1637.64,10412.76 4481.14,21970.66 13666.67,25815.3 9185.53,3844.64 17959.43,-1479.87 19597.07,-11892.63z"/>
    <path id="_187" fill="#7E088F" d="M32097.5 15748.29c-1633.26,10384.99 -10383.77,15695.3 -19544.8,11860.91 -9161.04,-3834.38 -15263.5,-15361.47 -13630.23,-25746.46 1633.26,-10384.99 10383.77,-15695.3 19544.8,-11860.92 9161.04,3834.39 15263.5,15361.48 13630.23,25746.47zm133.06 55.69c1646.36,-10468.29 -4505.05,-22087.84 -13739.57,-25952.99 -9234.51,-3865.14 -18055.21,1487.77 -19701.58,11956.06 -1646.36,10468.29 4505.05,22087.84 13739.57,25952.99 9234.51,3865.14 18055.21,-1487.77 19701.58,-11956.06z"/>
    <path id="_188" fill="#7D088F" d="M32186.21 15785.42c-1642,10440.52 -10439.3,15779.23 -19649.33,11924.34 -9210.02,-3854.89 -15345.11,-15443.62 -13703.12,-25884.15 1642,-10440.52 10439.31,-15779.23 19649.33,-11924.34 9210.02,3854.89 15345.12,15443.62 13703.12,25884.15zm133.05 55.69c1655.1,-10523.83 -4528.94,-22205.02 -13812.45,-26090.67 -9283.51,-3885.65 -18151,1495.65 -19806.1,12019.48 -1655.1,10523.83 4528.95,22205.02 13812.45,26090.67 9283.51,3885.65 18151,-1495.66 19806.1,-12019.48z"/>
    <path id="_189" fill="#7C0890" d="M32274.91 15822.54c-1650.73,10496.06 -10494.83,15863.17 -19753.84,11987.77 -9259.01,-3875.39 -15426.74,-15525.76 -13776.01,-26021.82 1650.73,-10496.06 10494.83,-15863.17 19753.84,-11987.78 9259.01,3875.4 15426.74,15525.77 13776.01,26021.83zm133.06 55.69c1663.83,-10579.36 -4552.85,-22322.19 -13885.35,-26228.35 -9332.49,-3906.15 -18246.78,1503.55 -19910.61,12082.92 -1663.84,10579.36 4552.84,22322.19 13885.34,26228.35 9332.49,3906.15 18246.78,-1503.55 19910.62,-12082.92z"/>
    <path id="_190" fill="#7C0790" d="M32363.61 15859.67c-1659.46,10551.6 -10550.35,15947.1 -19858.36,12051.2 -9308,-3895.9 -15508.36,-15607.92 -13848.89,-26159.51 1659.46,-10551.6 10550.35,-15947.1 19858.36,-12051.2 9308,3895.9 15508.36,15607.91 13848.89,26159.51zm133.06 55.69c1672.57,-10634.9 -4576.75,-22439.37 -13958.23,-26366.03 -9381.49,-3926.66 -18342.57,1511.44 -20015.14,12146.34 -1672.57,10634.9 4576.75,22439.37 13958.23,26366.03 9381.49,3926.66 18342.57,-1511.44 20015.14,-12146.34z"/>
    <path id="_191" fill="#7B0790" d="M32452.32 15896.8c-1668.2,10607.13 -10605.89,16031.03 -19962.88,12114.62 -9356.99,-3916.4 -15589.99,-15690.06 -13921.79,-26297.19 1668.21,-10607.13 10605.89,-16031.03 19962.88,-12114.62 9356.99,3916.4 15589.99,15690.06 13921.79,26297.19zm133.05 55.69c1681.3,-10690.44 -4600.64,-22556.55 -14031.12,-26503.72 -9430.47,-3947.16 -18438.35,1519.34 -20119.65,12209.77 -1681.3,10690.43 4600.64,22556.55 14031.12,26503.71 9430.47,3947.17 18438.35,-1519.33 20119.65,-12209.76z"/>
    <path id="_192" fill="#7B0791" d="M32541.02 15933.92c-1676.94,10662.67 -10661.41,16114.97 -20067.39,12178.06 -9405.98,-3936.91 -15671.61,-15772.21 -13994.68,-26434.88 1676.94,-10662.66 10661.41,-16114.96 20067.4,-12178.05 9405.98,3936.91 15671.61,15772.21 13994.67,26434.87zm133.06 55.69c1690.03,-10745.96 -4624.55,-22673.72 -14104.01,-26641.39 -9479.47,-3967.67 -18534.14,1527.23 -20224.17,12273.19 -1690.04,10745.97 4624.54,22673.73 14104,26641.4 9479.47,3967.67 18534.14,-1527.23 20224.18,-12273.2z"/>
    <path id="_193" fill="#7A0791" d="M32629.72 15971.05c-1685.67,10718.2 -10716.94,16198.9 -20171.91,12241.48 -9454.97,-3957.41 -15753.23,-15854.35 -14067.56,-26572.55 1685.67,-10718.2 10716.94,-16198.9 20171.91,-12241.48 9454.97,3957.41 15753.23,15854.35 14067.56,26572.55zm133.06 55.69c1698.77,-10801.5 -4648.44,-22790.9 -14176.9,-26779.08 -9528.45,-3988.17 -18629.92,1535.12 -20328.69,12336.63 -1698.77,10801.5 4648.45,22790.9 14176.9,26779.07 9528.45,3988.18 18629.92,-1535.12 20328.69,-12336.62z"/>
    <path id="_194" fill="#790792" d="M32718.43 16008.18c-1694.41,10773.73 -10772.47,16282.83 -20276.43,12304.91 -9503.96,-3977.93 -15834.86,-15936.51 -14140.46,-26710.24 1694.41,-10773.73 10772.47,-16282.83 20276.43,-12304.91 9503.96,3977.92 15834.86,15936.5 14140.46,26710.24zm133.05 55.69c1707.51,-10857.04 -4672.34,-22908.08 -14249.78,-26916.76 -9577.45,-4008.68 -18725.71,1543.01 -20433.21,12400.05 -1707.5,10857.04 4672.34,22908.08 14249.79,26916.76 9577.44,4008.68 18725.7,-1543.01 20433.2,-12400.05z"/>
    <path id="_195" fill="#790692" d="M32807.13 16045.31c-1703.14,10829.26 -10828,16366.76 -20380.95,12368.33 -9552.95,-3998.43 -15916.48,-16018.65 -14213.34,-26847.92 1703.14,-10829.27 10828,-16366.76 20380.95,-12368.33 9552.95,3998.42 15916.48,16018.65 14213.34,26847.92zm133.05 55.69c1716.24,-10912.58 -4696.24,-23025.26 -14322.67,-27054.44 -9626.43,-4029.19 -18821.49,1550.9 -20537.72,12463.47 -1716.24,10912.57 4696.24,23025.26 14322.67,27054.44 9626.43,4029.19 18821.49,-1550.9 20537.72,-12463.47z"/>
    <path id="_196" fill="#780693" d="M32895.83 16082.43c-1711.87,10884.81 -10883.52,16450.7 -20485.46,12431.77 -9601.94,-4018.94 -15998.1,-16100.8 -14286.23,-26985.6 1711.87,-10884.81 10883.52,-16450.7 20485.46,-12431.77 9601.94,4018.93 15998.1,16100.8 14286.23,26985.6zm133.06 55.69c1724.97,-10968.1 -4720.14,-23142.43 -14395.57,-27192.12 -9675.42,-4049.69 -18917.26,1558.8 -20642.24,12526.91 -1724.97,10968.1 4720.14,23142.43 14395.57,27192.12 9675.42,4049.69 18917.27,-1558.8 20642.24,-12526.91z"/>
    <path id="_197" fill="#780693" d="M32984.54 16119.56c-1720.61,10940.34 -10939.06,16534.63 -20589.99,12495.19 -9650.92,-4039.44 -16079.72,-16182.94 -14359.12,-27123.28 1720.61,-10940.34 10939.06,-16534.63 20589.99,-12495.19 9650.93,4039.43 16079.72,16182.94 14359.12,27123.28zm133.05 55.69c1733.71,-11023.64 -4744.04,-23259.61 -14468.45,-27329.8 -9724.41,-4070.2 -19013.05,1566.69 -20746.76,12590.33 -1733.71,11023.64 4744.04,23259.61 14468.45,27329.8 9724.41,4070.19 19013.06,-1566.69 20746.76,-12590.33z"/>
    <path id="_198" fill="#770694" d="M33073.24 16156.69c-1729.34,10995.87 -10994.58,16618.55 -20694.5,12558.61 -9699.92,-4059.94 -16161.35,-16265.08 -14432.01,-27260.96 1729.34,-10995.87 10994.58,-16618.56 20694.5,-12558.62 9699.92,4059.94 16161.35,16265.09 14432.01,27260.97zm133.05 55.69c1742.45,-11079.18 -4767.94,-23376.79 -14541.34,-27467.49 -9773.4,-4090.7 -19108.83,1574.59 -20851.27,12653.76 -1742.44,11079.18 4767.94,23376.79 14541.34,27467.49 9773.4,4090.69 19108.83,-1574.59 20851.27,-12653.76z"/>
    <path id="_199" fill="#770694" d="M33161.94 16193.81c-1738.07,11051.41 -11050.11,16702.49 -20799.01,12622.05 -9748.91,-4080.45 -16242.98,-16347.24 -14504.9,-27398.65 1738.07,-11051.4 11050.11,-16702.49 20799.02,-12622.04 9748.9,4080.44 16242.97,16347.24 14504.89,27398.64zm133.06 55.69c1751.17,-11134.71 -4791.84,-23493.96 -14614.23,-27605.16 -9822.39,-4111.2 -19204.62,1582.47 -20955.8,12717.18 -1751.17,11134.71 4791.84,23493.97 14614.23,27605.17 9822.4,4111.2 19204.62,-1582.48 20955.8,-12717.19z"/>
    <path id="_200" fill="#760594" d="M33250.65 16230.94c-1746.81,11106.94 -11105.64,16786.42 -20903.54,12685.47 -9797.9,-4100.95 -16324.59,-16429.38 -14577.79,-27536.32 1746.81,-11106.95 11105.64,-16786.42 20903.54,-12685.47 9797.9,4100.95 16324.59,16429.38 14577.79,27536.32zm133.05 55.69c1759.91,-11190.24 -4815.74,-23611.14 -14687.12,-27742.85 -9871.38,-4131.7 -19300.4,1590.37 -21060.31,12780.62 -1759.91,11190.24 4815.74,23611.14 14687.12,27742.85 9871.38,4131.7 19300.4,-1590.37 21060.31,-12780.62z"/>
    <path id="_201" fill="#760595" d="M33339.35 16268.07c-1755.54,11162.48 -11161.17,16870.35 -21008.05,12748.9 -9846.89,-4121.46 -16406.22,-16511.53 -14650.68,-27674.01 1755.54,-11162.48 11161.17,-16870.35 21008.05,-12748.9 9846.89,4121.46 16406.22,16511.53 14650.68,27674.01zm88.7 37.13c1764.28,-11218.02 -4827.69,-23669.73 -14723.56,-27811.69 -9895.88,-4141.96 -19348.3,1594.31 -21112.57,12812.32 -1764.28,11218.02 4827.69,23669.73 14723.56,27811.69 9895.88,4141.96 19348.3,-1594.31 21112.57,-12812.32z"/>
   </g>
  </g>
  <g id="layer1" inkscape:label="Layer 1" inkscape:groupmode="layer">
   <path id="path1575" fill="white" fill-rule="nonzero" d="M9413.06 2001.39c-23.36,0.3 -47.31,1.45 -71.11,3.31 -947.83,163.61 -1468.99,1165.87 -1544.5,2049.7 -110.35,801.98 243.07,1832.78 1123.65,2012.48 127.73,24.32 260.44,13.21 385.3,-20.67 1060.37,-355.56 1534.89,-1611.39 1381.62,-2651.62 -44.56,-671.84 -551.01,-1402.43 -1274.96,-1393.2zm-4018.36 43c-589.36,14.47 -1048.46,612.2 -1141.84,1174.09 -196.88,1113.21 309.51,2496.39 1469.26,2848.4 108.63,23.63 220.99,26.06 330.73,9.1 783.86,-130.64 1115.93,-1009.49 1083.14,-1718.97 -23.6,-935.89 -509.75,-2018.06 -1481.67,-2281.2 -88.84,-23.56 -175.43,-33.49 -259.62,-31.42zm6586.47 3161.77c-1019.55,61 -1718.54,1078.28 -1818.18,2028.2 -134.93,685.1 230.31,1601.43 1012.03,1656.12 1089.99,-13.43 1833.59,-1178.15 1864.48,-2180.33 68.95,-662.81 -321.49,-1467.39 -1058.33,-1503.99zm-8923.9 225.72c-433.76,-3.73 -860.36,256.09 -1002.11,697.01 -378.16,1179.49 381.24,2673.31 1630.5,2921.17 521.37,89.22 979.49,-311.17 1108.76,-792.92 273.97,-1030.42 -288.74,-2226.88 -1241.06,-2694.62 -155.15,-87.07 -326.36,-129.18 -496.09,-130.64zm4570.68 2115.02c-850.36,1.81 -1714.05,433.34 -2264.67,1075.69 -594.72,748.7 -1081.89,1619.95 -1272.48,2564.81 -231.55,680.15 293.25,1462.89 1020.3,1467.61 874.68,24.29 1626.41,-576.34 2496.18,-620.95 737.92,-112.49 1398.67,271.34 2062.09,522.56 564.87,241.59 1345.42,149.01 1633.8,-458.89 226.85,-619.62 -107.04,-1280.32 -383.64,-1830.59 -564.15,-893.15 -1168.54,-1831.86 -2093.52,-2389.52 -370.76,-229.8 -782.77,-331.61 -1198.06,-330.72z"/>
  </g>
 </g>
</svg>
