<?xml version="1.0" encoding="UTF-8"?>
<!DOCTYPE svg PUBLIC "-//W3C//DTD SVG 1.0//EN" "http://www.w3.org/TR/2001/REC-SVG-20010904/DTD/svg10.dtd">
<!-- Creator: CorelDRAW 2021 (64-Bit) -->
<svg xmlns="http://www.w3.org/2000/svg" xml:space="preserve" width="110.896mm" height="106.788mm" version="1.0" shape-rendering="geometricPrecision" text-rendering="geometricPrecision" image-rendering="optimizeQuality" fill-rule="evenodd" clip-rule="evenodd"
viewBox="0 0 11089.64 10678.82"
 xmlns:xlink="http://www.w3.org/1999/xlink"
 xmlns:xodm="http://www.corel.com/coreldraw/odm/2003">
 <g id="Warstwa_x0020_1">
  <metadata id="CorelCorpID_0Corel-Layer"/>
  <path id="path1575" fill="#FED91B" fill-rule="nonzero" d="M5669.44 5548.66c-850.36,1.81 -1714.05,433.34 -2264.67,1075.69 -594.72,748.7 -1081.89,1619.95 -1272.48,2564.81 -231.55,680.15 293.25,1462.89 1020.3,1467.61 874.68,24.29 1626.41,-576.34 2496.18,-620.95 737.92,-112.49 1398.67,271.34 2062.09,522.56 564.87,241.59 1345.42,149.01 1633.8,-458.89 226.85,-619.62 -107.04,-1280.32 -383.64,-1830.59 -564.15,-893.15 -1168.54,-1831.86 -2093.52,-2389.52 -370.76,-229.8 -782.77,-331.61 -1198.06,-330.72z"/>
  <path id="path1575_0" fill="#1C6BC2" fill-rule="nonzero" d="M1098.76 3433.64c-433.76,-3.73 -860.36,256.09 -1002.11,697.01 -378.16,1179.49 381.24,2673.31 1630.5,2921.17 521.37,89.22 979.49,-311.17 1108.76,-792.92 273.97,-1030.42 -288.74,-2226.88 -1241.06,-2694.62 -155.15,-87.07 -326.36,-129.18 -496.09,-130.64z"/>
  <path id="path1575_1" fill="#1C6BC2" fill-rule="nonzero" d="M10022.66 3207.92c-1019.55,61 -1718.54,1078.28 -1818.18,2028.2 -134.93,685.1 230.31,1601.43 1012.03,1656.12 1089.99,-13.43 1833.59,-1178.15 1864.48,-2180.33 68.95,-662.81 -321.49,-1467.39 -1058.33,-1503.99z"/>
  <path id="path1575_2" fill="#1C6BC2" fill-rule="nonzero" d="M3436.19 46.15c-589.36,14.47 -1048.46,612.2 -1141.84,1174.09 -196.88,1113.21 309.51,2496.39 1469.26,2848.4 108.63,23.63 220.99,26.06 330.73,9.1 783.86,-130.64 1115.93,-1009.49 1083.14,-1718.97 -23.6,-935.89 -509.75,-2018.06 -1481.67,-2281.2 -88.84,-23.56 -175.43,-33.49 -259.62,-31.42z"/>
  <path id="path1575_3" fill="#1C6BC2" fill-rule="nonzero" d="M7454.55 3.15c-23.36,0.3 -47.31,1.45 -71.11,3.31 -947.83,163.61 -1468.99,1165.87 -1544.5,2049.7 -110.35,801.98 243.07,1832.78 1123.65,2012.48 127.73,24.32 260.44,13.21 385.3,-20.67 1060.37,-355.56 1534.89,-1611.39 1381.62,-2651.62 -44.56,-671.84 -551.01,-1402.43 -1274.96,-1393.2z"/>
 </g>
</svg>
