<?xml version="1.0" encoding="UTF-8" standalone="no"?>
<svg
   xmlns:dc="http://purl.org/dc/elements/1.1/"
   xmlns:cc="http://creativecommons.org/ns#"
   xmlns:rdf="http://www.w3.org/1999/02/22-rdf-syntax-ns#"
   xmlns:svg="http://www.w3.org/2000/svg"
   xmlns="http://www.w3.org/2000/svg"
   xmlns:sodipodi="http://sodipodi.sourceforge.net/DTD/sodipodi-0.dtd"
   xmlns:inkscape="http://www.inkscape.org/namespaces/inkscape"
   version="1.1"
   width="428.31549"
   height="428.31549"
   id="svg14"
   viewBox="0 0 428.31549 428.31549"
   sodipodi:docname="lgo end.cdr">
  <metadata
     id="metadata18">
    <rdf:RDF>
      <cc:Work
         rdf:about="">
        <dc:format>image/svg+xml</dc:format>
        <dc:type
           rdf:resource="http://purl.org/dc/dcmitype/StillImage" />
      </cc:Work>
    </rdf:RDF>
  </metadata>
  <sodipodi:namedview
     pagecolor="#ffffff"
     bordercolor="#666666"
     borderopacity="1"
     objecttolerance="10"
     gridtolerance="10"
     guidetolerance="10"
     inkscape:pageopacity="0"
     inkscape:pageshadow="2"
     inkscape:window-width="640"
     inkscape:window-height="480"
     id="namedview16" />
  <defs
     id="defs7">
    <radialGradient
       id="grad1"
       cx="0.28"
       cy="0.28"
       r="1">
      <stop
         offset="0%"
         stop-color="#e7304b"
         stop-opacity="1.0000"
         id="stop2" />
      <stop
         offset="100%"
         stop-color="#332c83"
         stop-opacity="1.0000"
         id="stop4" />
    </radialGradient>
  </defs>
  <path
     d="m 298.3488,416.4915 -83.8317,0.216 c -27.9439,0.072 -64.0215,19.9244 -83.8317,0.216 L 71.2547,357.7983 C 51.4445,338.0899 11.896,326.6169 11.824,298.6731 L 11.608,214.8414 C 11.536,186.8975 -8.3164,150.8199 11.392,131.0097 L 70.5172,71.579 C 90.2256,51.7688 101.6986,12.2203 129.6425,12.1483 l 83.8316,-0.216 c 27.9439,-0.072 64.0215,-19.9244 83.8317,-0.216 l 59.4307,59.1252 c 19.8103,19.7084 59.3587,31.1814 59.4307,59.1252 l 0.216,83.8317 c 0.072,27.9439 19.9244,64.0215 0.216,83.8317 l -59.1252,59.4307 c -19.7084,19.8102 -31.1813,59.3587 -59.1252,59.4307 z"
     style="fill:url(#grad1)"
     id="path9" />
  <g
     id="Layer1000">
    <path
       d="m 266.8269,56.7323 c -0.6622,0.0085 -1.3411,0.0411 -2.0157,0.0938 -26.8676,4.6378 -41.6407,33.0483 -43.7811,58.1018 -3.1281,22.7333 6.8902,51.9528 31.8515,57.0467 3.6207,0.6893 7.3825,0.3744 10.9219,-0.586 30.0577,-10.0788 43.5087,-45.6772 39.164,-75.164 -1.2631,-19.0443 -15.6192,-39.7539 -36.1406,-39.4923 z m -113.9063,1.2189 c -16.7062,0.4102 -29.7201,17.3537 -32.3671,33.2813 -5.5808,31.5556 8.7735,70.7638 41.6483,80.7421 3.0793,0.6698 6.2643,0.7387 9.3751,0.2579 22.2196,-3.7032 31.6326,-28.6155 30.7031,-48.7267 -0.6689,-26.5292 -14.4496,-57.2049 -42.0001,-64.6639 -2.5183,-0.6679 -4.9728,-0.9494 -7.3593,-0.8907 z m 186.7031,89.625 c -28.9006,1.7291 -48.7145,30.5654 -51.5389,57.4923 -3.8248,19.4201 6.5284,45.3948 28.6874,46.9451 30.8974,-0.3807 51.9758,-33.3964 52.8514,-61.8046 1.9545,-18.7883 -9.1131,-41.5953 -29.9999,-42.6328 z m -252.9609,6.3984 c -12.2956,-0.1058 -24.3882,7.2592 -28.4063,19.7577 -10.7195,33.4344 10.8068,75.7789 46.2189,82.8048 14.779,2.5291 27.7651,-8.8205 31.4294,-22.4764 7.7661,-29.2088 -8.1847,-63.1242 -35.1796,-76.383 -4.398,-2.4681 -9.2512,-3.6618 -14.0624,-3.7031 z m 129.5626,59.9533 c -24.1047,0.0513 -48.5873,12.2836 -64.1954,30.492 -16.8582,21.223 -30.6678,45.9198 -36.0703,72.7032 -6.5636,19.2799 8.3126,41.4678 28.9219,41.6016 24.7941,0.6885 46.1029,-16.3372 70.7578,-17.6017 20.9175,-3.1887 39.6474,7.6915 58.453,14.8127 16.012,6.8482 38.1379,4.2239 46.3124,-13.0079 6.4304,-17.5641 -3.0342,-36.2926 -10.8748,-51.8908 -15.9917,-25.3176 -33.124,-51.9267 -59.3439,-67.7344 -10.5097,-6.514 -22.1887,-9.4 -33.9607,-9.3747 z"
       style="fill:#ffffff;fill-rule:evenodd"
       id="path11" />
  </g>
</svg>
